<svg xmlns="http://www.w3.org/2000/svg" version="1.1" xmlns:xlink="http://www.w3.org/1999/xlink" xmlns:svgjs="http://svgjs.com/svgjs" width="1150" height="1000" preserveAspectRatio="none" viewBox="0 0 1150 1000"><g mask="url(&quot;#SvgjsMask1048&quot;)" fill="none"><rect width="1150" height="1000" x="0" y="0" fill="rgba(17, 26, 42, 1)"></rect><g mask="url(&quot;#SvgjsMask1049&quot;)"><path d="M1069.5 264.5L1092.5 264.5L1138.5 310.5L1138.5 425.5L885.5 678.5" stroke-width="3.83" stroke="rgba(31, 49, 79, 0.81)"></path><path d="M1063.75 264.5 a5.75 5.75 0 1 0 11.5 0 a5.75 5.75 0 1 0 -11.5 0zM879.75 678.5 a5.75 5.75 0 1 0 11.5 0 a5.75 5.75 0 1 0 -11.5 0z" fill="rgba(31, 49, 79, 0.81)"></path><path d="M586.5 11.5L218.5 11.5L149.5 80.5" stroke-width="3.83" stroke="rgba(31, 49, 79, 0.81)"></path><path d="M580.75 11.5 a5.75 5.75 0 1 0 11.5 0 a5.75 5.75 0 1 0 -11.5 0zM143.75 80.5 a5.75 5.75 0 1 0 11.5 0 a5.75 5.75 0 1 0 -11.5 0z" fill="rgba(31, 49, 79, 0.81)"></path><path d="M356.5 103.5L793.5 540.5" stroke-width="3.83" stroke="rgba(31, 49, 79, 0.81)"></path><path d="M350.75 103.5 a5.75 5.75 0 1 0 11.5 0 a5.75 5.75 0 1 0 -11.5 0zM787.75 540.5 a5.75 5.75 0 1 0 11.5 0 a5.75 5.75 0 1 0 -11.5 0z" fill="rgba(31, 49, 79, 0.81)"></path><path d="M701.5 885.5L1138.5 448.5" stroke-width="3.83" stroke="rgba(31, 49, 79, 0.81)"></path><path d="M695.75 885.5 a5.75 5.75 0 1 0 11.5 0 a5.75 5.75 0 1 0 -11.5 0zM1132.75 448.5 a5.75 5.75 0 1 0 11.5 0 a5.75 5.75 0 1 0 -11.5 0z" fill="rgba(31, 49, 79, 0.81)"></path><path d="M839.5 908.5L839.5 1000.5" stroke-width="3.83" stroke="rgba(31, 49, 79, 0.81)"></path><path d="M833.75 908.5 a5.75 5.75 0 1 0 11.5 0 a5.75 5.75 0 1 0 -11.5 0zM833.75 1000.5 a5.75 5.75 0 1 0 11.5 0 a5.75 5.75 0 1 0 -11.5 0z" fill="rgba(31, 49, 79, 0.81)"></path><path d="M540.5 816.5L517.5 793.5L448.5 793.5L402.5 839.5L126.5 839.5L103.5 816.5" stroke-width="3.83" stroke="rgba(31, 49, 79, 0.81)"></path><path d="M534.75 816.5 a5.75 5.75 0 1 0 11.5 0 a5.75 5.75 0 1 0 -11.5 0zM97.75 816.5 a5.75 5.75 0 1 0 11.5 0 a5.75 5.75 0 1 0 -11.5 0z" fill="rgba(31, 49, 79, 0.81)"></path><path d="M977.5 195.5L1092.5 80.5L1138.5 80.5" stroke-width="3.83" stroke="rgba(31, 49, 79, 0.81)"></path><path d="M971.75 195.5 a5.75 5.75 0 1 0 11.5 0 a5.75 5.75 0 1 0 -11.5 0zM1132.75 80.5 a5.75 5.75 0 1 0 11.5 0 a5.75 5.75 0 1 0 -11.5 0z" fill="rgba(31, 49, 79, 0.81)"></path><path d="M793.5 333.5L954.5 494.5L954.5 563.5L747.5 770.5" stroke-width="3.83" stroke="rgba(31, 49, 79, 0.81)"></path><path d="M787.75 333.5 a5.75 5.75 0 1 0 11.5 0 a5.75 5.75 0 1 0 -11.5 0zM741.75 770.5 a5.75 5.75 0 1 0 11.5 0 a5.75 5.75 0 1 0 -11.5 0z" fill="rgba(31, 49, 79, 0.81)"></path><path d="M563.5 862.5L563.5 1000.5" stroke-width="3.83" stroke="rgba(31, 49, 79, 0.81)"></path><path d="M557.75 862.5 a5.75 5.75 0 1 0 11.5 0 a5.75 5.75 0 1 0 -11.5 0zM557.75 1000.5 a5.75 5.75 0 1 0 11.5 0 a5.75 5.75 0 1 0 -11.5 0z" fill="rgba(31, 49, 79, 0.81)"></path><path d="M839.5 839.5L770.5 839.5L609.5 1000.5L586.5 1000.5" stroke-width="3.83" stroke="rgba(31, 49, 79, 0.81)"></path><path d="M833.75 839.5 a5.75 5.75 0 1 0 11.5 0 a5.75 5.75 0 1 0 -11.5 0zM580.75 1000.5 a5.75 5.75 0 1 0 11.5 0 a5.75 5.75 0 1 0 -11.5 0z" fill="rgba(31, 49, 79, 0.81)"></path><path d="M448.5 747.5L448.5 770.5L402.5 816.5L379.5 816.5L103.5 540.5L34.5 540.5" stroke-width="3.83" stroke="rgba(31, 49, 79, 0.81)"></path><path d="M442.75 747.5 a5.75 5.75 0 1 0 11.5 0 a5.75 5.75 0 1 0 -11.5 0zM28.75 540.5 a5.75 5.75 0 1 0 11.5 0 a5.75 5.75 0 1 0 -11.5 0z" fill="rgba(31, 49, 79, 0.81)"></path><path d="M494.5 1000.5L540.5 954.5L540.5 839.5L816.5 563.5" stroke-width="3.83" stroke="rgba(31, 49, 79, 0.81)"></path><path d="M488.75 1000.5 a5.75 5.75 0 1 0 11.5 0 a5.75 5.75 0 1 0 -11.5 0zM810.75 563.5 a5.75 5.75 0 1 0 11.5 0 a5.75 5.75 0 1 0 -11.5 0z" fill="rgba(31, 49, 79, 0.81)"></path><path d="M57.5 816.5L149.5 724.5L149.5 609.5L103.5 563.5L11.5 563.5" stroke-width="3.83" stroke="rgba(31, 49, 79, 0.81)"></path><path d="M51.75 816.5 a5.75 5.75 0 1 0 11.5 0 a5.75 5.75 0 1 0 -11.5 0zM5.75 563.5 a5.75 5.75 0 1 0 11.5 0 a5.75 5.75 0 1 0 -11.5 0z" fill="rgba(31, 49, 79, 0.81)"></path><path d="M655.5 149.5L655.5 11.5" stroke-width="3.83" stroke="rgba(31, 49, 79, 0.81)"></path><path d="M649.75 149.5 a5.75 5.75 0 1 0 11.5 0 a5.75 5.75 0 1 0 -11.5 0zM649.75 11.5 a5.75 5.75 0 1 0 11.5 0 a5.75 5.75 0 1 0 -11.5 0z" fill="rgba(31, 49, 79, 0.81)"></path><path d="M931.5 540.5L931.5 494.5L724.5 287.5L563.5 287.5L540.5 264.5" stroke-width="3.83" stroke="rgba(31, 49, 79, 0.81)"></path><path d="M925.75 540.5 a5.75 5.75 0 1 0 11.5 0 a5.75 5.75 0 1 0 -11.5 0zM534.75 264.5 a5.75 5.75 0 1 0 11.5 0 a5.75 5.75 0 1 0 -11.5 0z" fill="rgba(31, 49, 79, 0.81)"></path><path d="M816.5 540.5L724.5 448.5L724.5 425.5L770.5 379.5L793.5 379.5L908.5 494.5L908.5 586.5L862.5 632.5" stroke-width="3.83" stroke="rgba(31, 49, 79, 0.81)"></path><path d="M810.75 540.5 a5.75 5.75 0 1 0 11.5 0 a5.75 5.75 0 1 0 -11.5 0zM856.75 632.5 a5.75 5.75 0 1 0 11.5 0 a5.75 5.75 0 1 0 -11.5 0z" fill="rgba(31, 49, 79, 0.81)"></path><path d="M1115.5 425.5L908.5 425.5L678.5 195.5" stroke-width="3.83" stroke="rgba(31, 49, 79, 0.81)"></path><path d="M1109.75 425.5 a5.75 5.75 0 1 0 11.5 0 a5.75 5.75 0 1 0 -11.5 0zM672.75 195.5 a5.75 5.75 0 1 0 11.5 0 a5.75 5.75 0 1 0 -11.5 0z" fill="rgba(31, 49, 79, 0.81)"></path><path d="M632.5 195.5L632.5 264.5" stroke-width="3.83" stroke="rgba(31, 49, 79, 0.81)"></path><path d="M626.75 195.5 a5.75 5.75 0 1 0 11.5 0 a5.75 5.75 0 1 0 -11.5 0zM626.75 264.5 a5.75 5.75 0 1 0 11.5 0 a5.75 5.75 0 1 0 -11.5 0z" fill="rgba(31, 49, 79, 0.81)"></path><path d="M402.5 701.5L356.5 747.5L356.5 770.5L379.5 793.5L402.5 793.5L425.5 770.5L425.5 471.5" stroke-width="3.83" stroke="rgba(31, 49, 79, 0.81)"></path><path d="M396.75 701.5 a5.75 5.75 0 1 0 11.5 0 a5.75 5.75 0 1 0 -11.5 0zM419.75 471.5 a5.75 5.75 0 1 0 11.5 0 a5.75 5.75 0 1 0 -11.5 0z" fill="rgba(31, 49, 79, 0.81)"></path><path d="M402.5 287.5L356.5 241.5L34.5 241.5L11.5 264.5L11.5 310.5" stroke-width="3.83" stroke="rgba(31, 49, 79, 0.81)"></path><path d="M396.75 287.5 a5.75 5.75 0 1 0 11.5 0 a5.75 5.75 0 1 0 -11.5 0zM5.75 310.5 a5.75 5.75 0 1 0 11.5 0 a5.75 5.75 0 1 0 -11.5 0z" fill="rgba(31, 49, 79, 0.81)"></path><path d="M126.5 954.5L57.5 954.5L34.5 977.5L34.5 1000.5" stroke-width="3.83" stroke="rgba(31, 49, 79, 0.81)"></path><path d="M120.75 954.5 a5.75 5.75 0 1 0 11.5 0 a5.75 5.75 0 1 0 -11.5 0zM28.75 1000.5 a5.75 5.75 0 1 0 11.5 0 a5.75 5.75 0 1 0 -11.5 0z" fill="rgba(31, 49, 79, 0.81)"></path><path d="M195.5 678.5L172.5 655.5L172.5 632.5" stroke-width="3.83" stroke="rgba(31, 49, 79, 0.81)"></path><path d="M189.75 678.5 a5.75 5.75 0 1 0 11.5 0 a5.75 5.75 0 1 0 -11.5 0zM166.75 632.5 a5.75 5.75 0 1 0 11.5 0 a5.75 5.75 0 1 0 -11.5 0z" fill="rgba(31, 49, 79, 0.81)"></path><path d="M563.5 356.5L563.5 333.5L264.5 34.5L218.5 34.5L149.5 103.5" stroke-width="3.83" stroke="rgba(31, 49, 79, 0.81)"></path><path d="M557.75 356.5 a5.75 5.75 0 1 0 11.5 0 a5.75 5.75 0 1 0 -11.5 0zM143.75 103.5 a5.75 5.75 0 1 0 11.5 0 a5.75 5.75 0 1 0 -11.5 0z" fill="rgba(31, 49, 79, 0.81)"></path><path d="M1069.5 448.5L1069.5 471.5L977.5 563.5" stroke-width="3.83" stroke="rgba(31, 49, 79, 0.81)"></path><path d="M1063.75 448.5 a5.75 5.75 0 1 0 11.5 0 a5.75 5.75 0 1 0 -11.5 0zM971.75 563.5 a5.75 5.75 0 1 0 11.5 0 a5.75 5.75 0 1 0 -11.5 0z" fill="rgba(31, 49, 79, 0.81)"></path><path d="M563.5 724.5L586.5 701.5L586.5 402.5L471.5 287.5" stroke-width="3.83" stroke="rgba(31, 49, 79, 0.81)"></path><path d="M557.75 724.5 a5.75 5.75 0 1 0 11.5 0 a5.75 5.75 0 1 0 -11.5 0zM465.75 287.5 a5.75 5.75 0 1 0 11.5 0 a5.75 5.75 0 1 0 -11.5 0z" fill="rgba(31, 49, 79, 0.81)"></path><path d="M885.5 954.5L1092.5 747.5L1138.5 747.5" stroke-width="3.83" stroke="rgba(31, 49, 79, 0.81)"></path><path d="M879.75 954.5 a5.75 5.75 0 1 0 11.5 0 a5.75 5.75 0 1 0 -11.5 0zM1132.75 747.5 a5.75 5.75 0 1 0 11.5 0 a5.75 5.75 0 1 0 -11.5 0z" fill="rgba(31, 49, 79, 0.81)"></path><path d="M80.5 425.5L241.5 264.5L356.5 264.5L517.5 425.5" stroke-width="3.83" stroke="rgba(31, 49, 79, 0.81)"></path><path d="M74.75 425.5 a5.75 5.75 0 1 0 11.5 0 a5.75 5.75 0 1 0 -11.5 0zM511.75 425.5 a5.75 5.75 0 1 0 11.5 0 a5.75 5.75 0 1 0 -11.5 0z" fill="rgba(31, 49, 79, 0.81)"></path><path d="M678.5 908.5L678.5 724.5L885.5 517.5L885.5 494.5L862.5 471.5" stroke-width="3.83" stroke="rgba(31, 49, 79, 0.81)"></path><path d="M672.75 908.5 a5.75 5.75 0 1 0 11.5 0 a5.75 5.75 0 1 0 -11.5 0zM856.75 471.5 a5.75 5.75 0 1 0 11.5 0 a5.75 5.75 0 1 0 -11.5 0z" fill="rgba(31, 49, 79, 0.81)"></path><path d="M333.5 563.5L333.5 747.5" stroke-width="3.83" stroke="rgba(31, 49, 79, 0.81)"></path><path d="M327.75 563.5 a5.75 5.75 0 1 0 11.5 0 a5.75 5.75 0 1 0 -11.5 0zM327.75 747.5 a5.75 5.75 0 1 0 11.5 0 a5.75 5.75 0 1 0 -11.5 0z" fill="rgba(31, 49, 79, 0.81)"></path><path d="M1000.5 793.5L816.5 793.5L793.5 816.5" stroke-width="3.83" stroke="rgba(31, 49, 79, 0.81)"></path><path d="M994.75 793.5 a5.75 5.75 0 1 0 11.5 0 a5.75 5.75 0 1 0 -11.5 0zM787.75 816.5 a5.75 5.75 0 1 0 11.5 0 a5.75 5.75 0 1 0 -11.5 0z" fill="rgba(31, 49, 79, 0.81)"></path><path d="M80.5 724.5L80.5 632.5L34.5 586.5L11.5 586.5" stroke-width="3.83" stroke="rgba(31, 49, 79, 0.81)"></path><path d="M74.75 724.5 a5.75 5.75 0 1 0 11.5 0 a5.75 5.75 0 1 0 -11.5 0zM5.75 586.5 a5.75 5.75 0 1 0 11.5 0 a5.75 5.75 0 1 0 -11.5 0z" fill="rgba(31, 49, 79, 0.81)"></path><path d="M1000.5 494.5L1000.5 448.5" stroke-width="3.83" stroke="rgba(31, 49, 79, 0.81)"></path><path d="M994.75 494.5 a5.75 5.75 0 1 0 11.5 0 a5.75 5.75 0 1 0 -11.5 0zM994.75 448.5 a5.75 5.75 0 1 0 11.5 0 a5.75 5.75 0 1 0 -11.5 0z" fill="rgba(31, 49, 79, 0.81)"></path><path d="M563.5 517.5L425.5 379.5L425.5 356.5L356.5 287.5L264.5 287.5L218.5 333.5L195.5 333.5L149.5 379.5" stroke-width="3.83" stroke="rgba(31, 49, 79, 0.81)"></path><path d="M557.75 517.5 a5.75 5.75 0 1 0 11.5 0 a5.75 5.75 0 1 0 -11.5 0zM143.75 379.5 a5.75 5.75 0 1 0 11.5 0 a5.75 5.75 0 1 0 -11.5 0z" fill="rgba(31, 49, 79, 0.81)"></path><path d="M655.5 448.5L609.5 402.5L609.5 379.5L586.5 356.5" stroke-width="3.83" stroke="rgba(31, 49, 79, 0.81)"></path><path d="M649.75 448.5 a5.75 5.75 0 1 0 11.5 0 a5.75 5.75 0 1 0 -11.5 0zM580.75 356.5 a5.75 5.75 0 1 0 11.5 0 a5.75 5.75 0 1 0 -11.5 0z" fill="rgba(31, 49, 79, 0.81)"></path><path d="M1092.5 862.5L1092.5 1000.5" stroke-width="3.83" stroke="rgba(31, 49, 79, 0.81)"></path><path d="M1086.75 862.5 a5.75 5.75 0 1 0 11.5 0 a5.75 5.75 0 1 0 -11.5 0zM1086.75 1000.5 a5.75 5.75 0 1 0 11.5 0 a5.75 5.75 0 1 0 -11.5 0z" fill="rgba(31, 49, 79, 0.81)"></path><path d="M931.5 747.5L931.5 678.5L1138.5 471.5" stroke-width="3.83" stroke="rgba(31, 49, 79, 0.81)"></path><path d="M925.75 747.5 a5.75 5.75 0 1 0 11.5 0 a5.75 5.75 0 1 0 -11.5 0zM1132.75 471.5 a5.75 5.75 0 1 0 11.5 0 a5.75 5.75 0 1 0 -11.5 0z" fill="rgba(31, 49, 79, 0.81)"></path><path d="M954.5 931.5L1069.5 931.5" stroke-width="3.83" stroke="rgba(31, 49, 79, 0.81)"></path><path d="M948.75 931.5 a5.75 5.75 0 1 0 11.5 0 a5.75 5.75 0 1 0 -11.5 0zM1063.75 931.5 a5.75 5.75 0 1 0 11.5 0 a5.75 5.75 0 1 0 -11.5 0z" fill="rgba(31, 49, 79, 0.81)"></path><path d="M11.5 862.5L34.5 839.5L34.5 655.5L11.5 632.5L11.5 609.5" stroke-width="3.83" stroke="rgba(31, 49, 79, 0.81)"></path><path d="M5.75 862.5 a5.75 5.75 0 1 0 11.5 0 a5.75 5.75 0 1 0 -11.5 0zM5.75 609.5 a5.75 5.75 0 1 0 11.5 0 a5.75 5.75 0 1 0 -11.5 0z" fill="rgba(31, 49, 79, 0.81)"></path><path d="M1138.5 172.5L1138.5 195.5L1092.5 241.5L747.5 241.5L724.5 218.5" stroke-width="3.83" stroke="rgba(31, 49, 79, 0.81)"></path><path d="M1132.75 172.5 a5.75 5.75 0 1 0 11.5 0 a5.75 5.75 0 1 0 -11.5 0zM718.75 218.5 a5.75 5.75 0 1 0 11.5 0 a5.75 5.75 0 1 0 -11.5 0z" fill="rgba(31, 49, 79, 0.81)"></path><path d="M80.5 11.5L11.5 11.5" stroke-width="3.83" stroke="rgba(31, 49, 79, 0.81)"></path><path d="M74.75 11.5 a5.75 5.75 0 1 0 11.5 0 a5.75 5.75 0 1 0 -11.5 0zM5.75 11.5 a5.75 5.75 0 1 0 11.5 0 a5.75 5.75 0 1 0 -11.5 0z" fill="rgba(31, 49, 79, 0.81)"></path><path d="M701.5 954.5L793.5 954.5L816.5 931.5L816.5 885.5L793.5 862.5L770.5 862.5L701.5 931.5" stroke-width="3.83" stroke="rgba(31, 49, 79, 0.81)"></path><path d="M695.75 954.5 a5.75 5.75 0 1 0 11.5 0 a5.75 5.75 0 1 0 -11.5 0zM695.75 931.5 a5.75 5.75 0 1 0 11.5 0 a5.75 5.75 0 1 0 -11.5 0z" fill="rgba(31, 49, 79, 0.81)"></path><path d="M701.5 563.5L747.5 517.5" stroke-width="3.83" stroke="rgba(31, 49, 79, 0.81)"></path><path d="M695.75 563.5 a5.75 5.75 0 1 0 11.5 0 a5.75 5.75 0 1 0 -11.5 0zM741.75 517.5 a5.75 5.75 0 1 0 11.5 0 a5.75 5.75 0 1 0 -11.5 0z" fill="rgba(31, 49, 79, 0.81)"></path><path d="M701.5 310.5L586.5 310.5" stroke-width="3.83" stroke="rgba(31, 49, 79, 0.81)"></path><path d="M695.75 310.5 a5.75 5.75 0 1 0 11.5 0 a5.75 5.75 0 1 0 -11.5 0zM580.75 310.5 a5.75 5.75 0 1 0 11.5 0 a5.75 5.75 0 1 0 -11.5 0z" fill="rgba(31, 49, 79, 0.81)"></path><path d="M241.5 931.5L11.5 931.5" stroke-width="3.83" stroke="rgba(31, 49, 79, 0.81)"></path><path d="M235.75 931.5 a5.75 5.75 0 1 0 11.5 0 a5.75 5.75 0 1 0 -11.5 0zM5.75 931.5 a5.75 5.75 0 1 0 11.5 0 a5.75 5.75 0 1 0 -11.5 0z" fill="rgba(31, 49, 79, 0.81)"></path><path d="M839.5 471.5L770.5 471.5L747.5 448.5L747.5 425.5L770.5 402.5L793.5 402.5L839.5 448.5" stroke-width="3.83" stroke="rgba(31, 49, 79, 0.81)"></path><path d="M833.75 471.5 a5.75 5.75 0 1 0 11.5 0 a5.75 5.75 0 1 0 -11.5 0zM833.75 448.5 a5.75 5.75 0 1 0 11.5 0 a5.75 5.75 0 1 0 -11.5 0z" fill="rgba(31, 49, 79, 0.81)"></path><path d="M126.5 126.5L34.5 34.5L11.5 34.5" stroke-width="3.83" stroke="rgba(31, 49, 79, 0.81)"></path><path d="M120.75 126.5 a5.75 5.75 0 1 0 11.5 0 a5.75 5.75 0 1 0 -11.5 0zM5.75 34.5 a5.75 5.75 0 1 0 11.5 0 a5.75 5.75 0 1 0 -11.5 0z" fill="rgba(31, 49, 79, 0.81)"></path><path d="M655.5 379.5L747.5 379.5L770.5 356.5" stroke-width="3.83" stroke="rgba(31, 49, 79, 0.81)"></path><path d="M649.75 379.5 a5.75 5.75 0 1 0 11.5 0 a5.75 5.75 0 1 0 -11.5 0zM764.75 356.5 a5.75 5.75 0 1 0 11.5 0 a5.75 5.75 0 1 0 -11.5 0z" fill="rgba(31, 49, 79, 0.81)"></path><path d="M1069.5 80.5L1115.5 34.5L1115.5 11.5" stroke-width="3.83" stroke="rgba(31, 49, 79, 0.81)"></path><path d="M1063.75 80.5 a5.75 5.75 0 1 0 11.5 0 a5.75 5.75 0 1 0 -11.5 0zM1109.75 11.5 a5.75 5.75 0 1 0 11.5 0 a5.75 5.75 0 1 0 -11.5 0z" fill="rgba(31, 49, 79, 0.81)"></path><path d="M1000.5 149.5L1000.5 11.5" stroke-width="3.83" stroke="rgba(31, 49, 79, 0.81)"></path><path d="M994.75 149.5 a5.75 5.75 0 1 0 11.5 0 a5.75 5.75 0 1 0 -11.5 0zM994.75 11.5 a5.75 5.75 0 1 0 11.5 0 a5.75 5.75 0 1 0 -11.5 0z" fill="rgba(31, 49, 79, 0.81)"></path><path d="M356.5 34.5L333.5 57.5L333.5 80.5" stroke-width="3.83" stroke="rgba(31, 49, 79, 0.81)"></path><path d="M350.75 34.5 a5.75 5.75 0 1 0 11.5 0 a5.75 5.75 0 1 0 -11.5 0zM327.75 80.5 a5.75 5.75 0 1 0 11.5 0 a5.75 5.75 0 1 0 -11.5 0z" fill="rgba(31, 49, 79, 0.81)"></path><path d="M724.5 103.5L839.5 218.5L1092.5 218.5L1115.5 195.5L1115.5 149.5" stroke-width="3.83" stroke="rgba(31, 49, 79, 0.81)"></path><path d="M718.75 103.5 a5.75 5.75 0 1 0 11.5 0 a5.75 5.75 0 1 0 -11.5 0zM1109.75 149.5 a5.75 5.75 0 1 0 11.5 0 a5.75 5.75 0 1 0 -11.5 0z" fill="rgba(31, 49, 79, 0.81)"></path><path d="M1000.5 1000.5L1069.5 1000.5" stroke-width="3.83" stroke="rgba(31, 49, 79, 0.81)"></path><path d="M994.75 1000.5 a5.75 5.75 0 1 0 11.5 0 a5.75 5.75 0 1 0 -11.5 0zM1063.75 1000.5 a5.75 5.75 0 1 0 11.5 0 a5.75 5.75 0 1 0 -11.5 0z" fill="rgba(31, 49, 79, 0.81)"></path><path d="M540.5 57.5L563.5 34.5L609.5 34.5L632.5 11.5" stroke-width="3.83" stroke="rgba(31, 49, 79, 0.81)"></path><path d="M534.75 57.5 a5.75 5.75 0 1 0 11.5 0 a5.75 5.75 0 1 0 -11.5 0zM626.75 11.5 a5.75 5.75 0 1 0 11.5 0 a5.75 5.75 0 1 0 -11.5 0z" fill="rgba(31, 49, 79, 0.81)"></path><path d="M103.5 287.5L34.5 287.5" stroke-width="3.83" stroke="rgba(31, 49, 79, 0.81)"></path><path d="M97.75 287.5 a5.75 5.75 0 1 0 11.5 0 a5.75 5.75 0 1 0 -11.5 0zM28.75 287.5 a5.75 5.75 0 1 0 11.5 0 a5.75 5.75 0 1 0 -11.5 0z" fill="rgba(31, 49, 79, 0.81)"></path><path d="M632.5 885.5L655.5 908.5L655.5 931.5L609.5 977.5L586.5 977.5" stroke-width="3.83" stroke="rgba(31, 49, 79, 0.81)"></path><path d="M626.75 885.5 a5.75 5.75 0 1 0 11.5 0 a5.75 5.75 0 1 0 -11.5 0zM580.75 977.5 a5.75 5.75 0 1 0 11.5 0 a5.75 5.75 0 1 0 -11.5 0z" fill="rgba(31, 49, 79, 0.81)"></path><path d="M1023.5 333.5L954.5 264.5L793.5 264.5" stroke-width="3.83" stroke="rgba(31, 49, 79, 0.81)"></path><path d="M1017.75 333.5 a5.75 5.75 0 1 0 11.5 0 a5.75 5.75 0 1 0 -11.5 0zM787.75 264.5 a5.75 5.75 0 1 0 11.5 0 a5.75 5.75 0 1 0 -11.5 0z" fill="rgba(31, 49, 79, 0.81)"></path><path d="M862.5 747.5L908.5 701.5" stroke-width="3.83" stroke="rgba(31, 49, 79, 0.81)"></path><path d="M856.75 747.5 a5.75 5.75 0 1 0 11.5 0 a5.75 5.75 0 1 0 -11.5 0zM902.75 701.5 a5.75 5.75 0 1 0 11.5 0 a5.75 5.75 0 1 0 -11.5 0z" fill="rgba(31, 49, 79, 0.81)"></path><path d="M1092.5 724.5L1023.5 793.5" stroke-width="3.83" stroke="rgba(31, 49, 79, 0.81)"></path><path d="M1086.75 724.5 a5.75 5.75 0 1 0 11.5 0 a5.75 5.75 0 1 0 -11.5 0zM1017.75 793.5 a5.75 5.75 0 1 0 11.5 0 a5.75 5.75 0 1 0 -11.5 0z" fill="rgba(31, 49, 79, 0.81)"></path><path d="M195.5 195.5L218.5 218.5L425.5 218.5L471.5 264.5" stroke-width="3.83" stroke="rgba(31, 49, 79, 0.81)"></path><path d="M189.75 195.5 a5.75 5.75 0 1 0 11.5 0 a5.75 5.75 0 1 0 -11.5 0zM465.75 264.5 a5.75 5.75 0 1 0 11.5 0 a5.75 5.75 0 1 0 -11.5 0z" fill="rgba(31, 49, 79, 0.81)"></path><path d="M11.5 103.5L11.5 57.5" stroke-width="3.83" stroke="rgba(31, 49, 79, 0.81)"></path><path d="M5.75 103.5 a5.75 5.75 0 1 0 11.5 0 a5.75 5.75 0 1 0 -11.5 0zM5.75 57.5 a5.75 5.75 0 1 0 11.5 0 a5.75 5.75 0 1 0 -11.5 0z" fill="rgba(31, 49, 79, 0.81)"></path><path d="M793.5 678.5L793.5 632.5L885.5 540.5" stroke-width="3.83" stroke="rgba(31, 49, 79, 0.81)"></path><path d="M787.75 678.5 a5.75 5.75 0 1 0 11.5 0 a5.75 5.75 0 1 0 -11.5 0zM879.75 540.5 a5.75 5.75 0 1 0 11.5 0 a5.75 5.75 0 1 0 -11.5 0z" fill="rgba(31, 49, 79, 0.81)"></path><path d="M1069.5 793.5L1138.5 862.5L1138.5 1000.5" stroke-width="3.83" stroke="rgba(31, 49, 79, 0.81)"></path><path d="M1063.75 793.5 a5.75 5.75 0 1 0 11.5 0 a5.75 5.75 0 1 0 -11.5 0zM1132.75 1000.5 a5.75 5.75 0 1 0 11.5 0 a5.75 5.75 0 1 0 -11.5 0z" fill="rgba(31, 49, 79, 0.81)"></path><path d="M149.5 517.5L356.5 310.5" stroke-width="3.83" stroke="rgba(31, 49, 79, 0.81)"></path><path d="M143.75 517.5 a5.75 5.75 0 1 0 11.5 0 a5.75 5.75 0 1 0 -11.5 0zM350.75 310.5 a5.75 5.75 0 1 0 11.5 0 a5.75 5.75 0 1 0 -11.5 0z" fill="rgba(31, 49, 79, 0.81)"></path><path d="M609.5 701.5L609.5 425.5" stroke-width="3.83" stroke="rgba(31, 49, 79, 0.81)"></path><path d="M603.75 701.5 a5.75 5.75 0 1 0 11.5 0 a5.75 5.75 0 1 0 -11.5 0zM603.75 425.5 a5.75 5.75 0 1 0 11.5 0 a5.75 5.75 0 1 0 -11.5 0z" fill="rgba(31, 49, 79, 0.81)"></path><path d="M379.5 241.5L540.5 402.5L563.5 402.5" stroke-width="3.83" stroke="rgba(31, 49, 79, 0.81)"></path><path d="M373.75 241.5 a5.75 5.75 0 1 0 11.5 0 a5.75 5.75 0 1 0 -11.5 0zM557.75 402.5 a5.75 5.75 0 1 0 11.5 0 a5.75 5.75 0 1 0 -11.5 0z" fill="rgba(31, 49, 79, 0.81)"></path><path d="M287.5 793.5L287.5 747.5L218.5 678.5" stroke-width="3.83" stroke="rgba(31, 49, 79, 0.81)"></path><path d="M281.75 793.5 a5.75 5.75 0 1 0 11.5 0 a5.75 5.75 0 1 0 -11.5 0zM212.75 678.5 a5.75 5.75 0 1 0 11.5 0 a5.75 5.75 0 1 0 -11.5 0z" fill="rgba(31, 49, 79, 0.81)"></path><path d="M954.5 356.5L954.5 287.5" stroke-width="3.83" stroke="rgba(31, 49, 79, 0.81)"></path><path d="M948.75 356.5 a5.75 5.75 0 1 0 11.5 0 a5.75 5.75 0 1 0 -11.5 0zM948.75 287.5 a5.75 5.75 0 1 0 11.5 0 a5.75 5.75 0 1 0 -11.5 0z" fill="rgba(31, 49, 79, 0.81)"></path><path d="M310.5 655.5L287.5 678.5L264.5 678.5L11.5 425.5L11.5 333.5L34.5 310.5L57.5 310.5" stroke-width="3.83" stroke="rgba(31, 49, 79, 0.81)"></path><path d="M304.75 655.5 a5.75 5.75 0 1 0 11.5 0 a5.75 5.75 0 1 0 -11.5 0zM51.75 310.5 a5.75 5.75 0 1 0 11.5 0 a5.75 5.75 0 1 0 -11.5 0z" fill="rgba(31, 49, 79, 0.81)"></path><path d="M517.5 816.5L517.5 954.5L471.5 1000.5L287.5 1000.5L241.5 954.5L218.5 954.5" stroke-width="3.83" stroke="rgba(31, 49, 79, 0.81)"></path><path d="M511.75 816.5 a5.75 5.75 0 1 0 11.5 0 a5.75 5.75 0 1 0 -11.5 0zM212.75 954.5 a5.75 5.75 0 1 0 11.5 0 a5.75 5.75 0 1 0 -11.5 0z" fill="rgba(31, 49, 79, 0.81)"></path><path d="M701.5 103.5L678.5 126.5L678.5 172.5L701.5 195.5L793.5 195.5L816.5 218.5" stroke-width="3.83" stroke="rgba(31, 49, 79, 0.81)"></path><path d="M695.75 103.5 a5.75 5.75 0 1 0 11.5 0 a5.75 5.75 0 1 0 -11.5 0zM810.75 218.5 a5.75 5.75 0 1 0 11.5 0 a5.75 5.75 0 1 0 -11.5 0z" fill="rgba(31, 49, 79, 0.81)"></path><path d="M701.5 586.5L632.5 586.5" stroke-width="3.83" stroke="rgba(31, 49, 79, 0.81)"></path><path d="M695.75 586.5 a5.75 5.75 0 1 0 11.5 0 a5.75 5.75 0 1 0 -11.5 0zM626.75 586.5 a5.75 5.75 0 1 0 11.5 0 a5.75 5.75 0 1 0 -11.5 0z" fill="rgba(31, 49, 79, 0.81)"></path><path d="M1000.5 977.5L1069.5 977.5" stroke-width="3.83" stroke="rgba(31, 49, 79, 0.81)"></path><path d="M994.75 977.5 a5.75 5.75 0 1 0 11.5 0 a5.75 5.75 0 1 0 -11.5 0zM1063.75 977.5 a5.75 5.75 0 1 0 11.5 0 a5.75 5.75 0 1 0 -11.5 0z" fill="rgba(31, 49, 79, 0.81)"></path><path d="M172.5 425.5L172.5 379.5L195.5 356.5L218.5 356.5L241.5 379.5L264.5 379.5L333.5 310.5" stroke-width="3.83" stroke="rgba(31, 49, 79, 0.81)"></path><path d="M166.75 425.5 a5.75 5.75 0 1 0 11.5 0 a5.75 5.75 0 1 0 -11.5 0zM327.75 310.5 a5.75 5.75 0 1 0 11.5 0 a5.75 5.75 0 1 0 -11.5 0z" fill="rgba(31, 49, 79, 0.81)"></path><path d="M1115.5 103.5L1115.5 126.5L1046.5 195.5L1000.5 195.5" stroke-width="3.83" stroke="rgba(31, 49, 79, 0.81)"></path><path d="M1109.75 103.5 a5.75 5.75 0 1 0 11.5 0 a5.75 5.75 0 1 0 -11.5 0zM994.75 195.5 a5.75 5.75 0 1 0 11.5 0 a5.75 5.75 0 1 0 -11.5 0z" fill="rgba(31, 49, 79, 0.81)"></path><path d="M1046.5 885.5L1092.5 839.5" stroke-width="3.83" stroke="rgba(31, 49, 79, 0.81)"></path><path d="M1040.75 885.5 a5.75 5.75 0 1 0 11.5 0 a5.75 5.75 0 1 0 -11.5 0zM1086.75 839.5 a5.75 5.75 0 1 0 11.5 0 a5.75 5.75 0 1 0 -11.5 0z" fill="rgba(31, 49, 79, 0.81)"></path><path d="M218.5 57.5L57.5 218.5L11.5 218.5" stroke-width="3.83" stroke="rgba(31, 49, 79, 0.81)"></path><path d="M212.75 57.5 a5.75 5.75 0 1 0 11.5 0 a5.75 5.75 0 1 0 -11.5 0zM5.75 218.5 a5.75 5.75 0 1 0 11.5 0 a5.75 5.75 0 1 0 -11.5 0z" fill="rgba(31, 49, 79, 0.81)"></path><path d="M402.5 655.5L402.5 448.5L333.5 379.5L310.5 379.5L172.5 517.5" stroke-width="3.83" stroke="rgba(31, 49, 79, 0.81)"></path><path d="M396.75 655.5 a5.75 5.75 0 1 0 11.5 0 a5.75 5.75 0 1 0 -11.5 0zM166.75 517.5 a5.75 5.75 0 1 0 11.5 0 a5.75 5.75 0 1 0 -11.5 0z" fill="rgba(31, 49, 79, 0.81)"></path><path d="M471.5 724.5L448.5 701.5L448.5 632.5L540.5 540.5L563.5 540.5" stroke-width="3.83" stroke="rgba(31, 49, 79, 0.81)"></path><path d="M465.75 724.5 a5.75 5.75 0 1 0 11.5 0 a5.75 5.75 0 1 0 -11.5 0zM557.75 540.5 a5.75 5.75 0 1 0 11.5 0 a5.75 5.75 0 1 0 -11.5 0z" fill="rgba(31, 49, 79, 0.81)"></path><path d="M540.5 632.5L540.5 563.5" stroke-width="3.83" stroke="rgba(31, 49, 79, 0.81)"></path><path d="M534.75 632.5 a5.75 5.75 0 1 0 11.5 0 a5.75 5.75 0 1 0 -11.5 0zM534.75 563.5 a5.75 5.75 0 1 0 11.5 0 a5.75 5.75 0 1 0 -11.5 0z" fill="rgba(31, 49, 79, 0.81)"></path><path d="M310.5 126.5L310.5 103.5L264.5 57.5L241.5 57.5L80.5 218.5" stroke-width="3.83" stroke="rgba(31, 49, 79, 0.81)"></path><path d="M304.75 126.5 a5.75 5.75 0 1 0 11.5 0 a5.75 5.75 0 1 0 -11.5 0zM74.75 218.5 a5.75 5.75 0 1 0 11.5 0 a5.75 5.75 0 1 0 -11.5 0z" fill="rgba(31, 49, 79, 0.81)"></path><path d="M540.5 747.5L471.5 678.5L471.5 632.5L517.5 586.5" stroke-width="3.83" stroke="rgba(31, 49, 79, 0.81)"></path><path d="M534.75 747.5 a5.75 5.75 0 1 0 11.5 0 a5.75 5.75 0 1 0 -11.5 0zM511.75 586.5 a5.75 5.75 0 1 0 11.5 0 a5.75 5.75 0 1 0 -11.5 0z" fill="rgba(31, 49, 79, 0.81)"></path><path d="M908.5 908.5L862.5 862.5L862.5 816.5" stroke-width="3.83" stroke="rgba(31, 49, 79, 0.81)"></path><path d="M902.75 908.5 a5.75 5.75 0 1 0 11.5 0 a5.75 5.75 0 1 0 -11.5 0zM856.75 816.5 a5.75 5.75 0 1 0 11.5 0 a5.75 5.75 0 1 0 -11.5 0z" fill="rgba(31, 49, 79, 0.81)"></path><path d="M34.5 885.5L34.5 862.5L80.5 816.5" stroke-width="3.83" stroke="rgba(31, 49, 79, 0.81)"></path><path d="M28.75 885.5 a5.75 5.75 0 1 0 11.5 0 a5.75 5.75 0 1 0 -11.5 0zM74.75 816.5 a5.75 5.75 0 1 0 11.5 0 a5.75 5.75 0 1 0 -11.5 0z" fill="rgba(31, 49, 79, 0.81)"></path><path d="M977.5 172.5L954.5 195.5L839.5 195.5L793.5 149.5L793.5 11.5" stroke-width="3.83" stroke="rgba(31, 49, 79, 0.81)"></path><path d="M971.75 172.5 a5.75 5.75 0 1 0 11.5 0 a5.75 5.75 0 1 0 -11.5 0zM787.75 11.5 a5.75 5.75 0 1 0 11.5 0 a5.75 5.75 0 1 0 -11.5 0z" fill="rgba(31, 49, 79, 0.81)"></path><path d="M908.5 103.5L977.5 103.5" stroke-width="3.83" stroke="rgba(31, 49, 79, 0.81)"></path><path d="M902.75 103.5 a5.75 5.75 0 1 0 11.5 0 a5.75 5.75 0 1 0 -11.5 0zM971.75 103.5 a5.75 5.75 0 1 0 11.5 0 a5.75 5.75 0 1 0 -11.5 0z" fill="rgba(31, 49, 79, 0.81)"></path><path d="M1000.5 655.5L1069.5 724.5" stroke-width="3.83" stroke="rgba(31, 49, 79, 0.81)"></path><path d="M994.75 655.5 a5.75 5.75 0 1 0 11.5 0 a5.75 5.75 0 1 0 -11.5 0zM1063.75 724.5 a5.75 5.75 0 1 0 11.5 0 a5.75 5.75 0 1 0 -11.5 0z" fill="rgba(31, 49, 79, 0.81)"></path><path d="M448.5 908.5L379.5 908.5L310.5 977.5L287.5 977.5L264.5 954.5L264.5 862.5" stroke-width="3.83" stroke="rgba(31, 49, 79, 0.81)"></path><path d="M442.75 908.5 a5.75 5.75 0 1 0 11.5 0 a5.75 5.75 0 1 0 -11.5 0zM258.75 862.5 a5.75 5.75 0 1 0 11.5 0 a5.75 5.75 0 1 0 -11.5 0z" fill="rgba(31, 49, 79, 0.81)"></path><path d="M379.5 632.5L379.5 701.5L356.5 724.5" stroke-width="3.83" stroke="rgba(31, 49, 79, 0.81)"></path><path d="M373.75 632.5 a5.75 5.75 0 1 0 11.5 0 a5.75 5.75 0 1 0 -11.5 0zM350.75 724.5 a5.75 5.75 0 1 0 11.5 0 a5.75 5.75 0 1 0 -11.5 0z" fill="rgba(31, 49, 79, 0.81)"></path><path d="M862.5 57.5L977.5 57.5" stroke-width="3.83" stroke="rgba(31, 49, 79, 0.81)"></path><path d="M856.75 57.5 a5.75 5.75 0 1 0 11.5 0 a5.75 5.75 0 1 0 -11.5 0zM971.75 57.5 a5.75 5.75 0 1 0 11.5 0 a5.75 5.75 0 1 0 -11.5 0z" fill="rgba(31, 49, 79, 0.81)"></path><path d="M379.5 103.5L379.5 34.5" stroke-width="3.83" stroke="rgba(31, 49, 79, 0.81)"></path><path d="M373.75 103.5 a5.75 5.75 0 1 0 11.5 0 a5.75 5.75 0 1 0 -11.5 0zM373.75 34.5 a5.75 5.75 0 1 0 11.5 0 a5.75 5.75 0 1 0 -11.5 0z" fill="rgba(31, 49, 79, 0.81)"></path><path d="M701.5 356.5L747.5 356.5" stroke-width="3.83" stroke="rgba(31, 49, 79, 0.81)"></path><path d="M695.75 356.5 a5.75 5.75 0 1 0 11.5 0 a5.75 5.75 0 1 0 -11.5 0zM741.75 356.5 a5.75 5.75 0 1 0 11.5 0 a5.75 5.75 0 1 0 -11.5 0z" fill="rgba(31, 49, 79, 0.81)"></path><path d="M908.5 287.5L816.5 287.5" stroke-width="3.83" stroke="rgba(31, 49, 79, 0.81)"></path><path d="M902.75 287.5 a5.75 5.75 0 1 0 11.5 0 a5.75 5.75 0 1 0 -11.5 0zM810.75 287.5 a5.75 5.75 0 1 0 11.5 0 a5.75 5.75 0 1 0 -11.5 0z" fill="rgba(31, 49, 79, 0.81)"></path><path d="M264.5 195.5L264.5 172.5L287.5 149.5L287.5 103.5L264.5 80.5L241.5 80.5L103.5 218.5" stroke-width="3.83" stroke="rgba(31, 49, 79, 0.81)"></path><path d="M258.75 195.5 a5.75 5.75 0 1 0 11.5 0 a5.75 5.75 0 1 0 -11.5 0zM97.75 218.5 a5.75 5.75 0 1 0 11.5 0 a5.75 5.75 0 1 0 -11.5 0z" fill="rgba(31, 49, 79, 0.81)"></path><path d="M471.5 839.5L425.5 839.5L310.5 954.5L287.5 954.5" stroke-width="3.83" stroke="rgba(31, 49, 79, 0.81)"></path><path d="M465.75 839.5 a5.75 5.75 0 1 0 11.5 0 a5.75 5.75 0 1 0 -11.5 0zM281.75 954.5 a5.75 5.75 0 1 0 11.5 0 a5.75 5.75 0 1 0 -11.5 0z" fill="rgba(31, 49, 79, 0.81)"></path><path d="M310.5 310.5L264.5 356.5L241.5 356.5" stroke-width="3.83" stroke="rgba(31, 49, 79, 0.81)"></path><path d="M304.75 310.5 a5.75 5.75 0 1 0 11.5 0 a5.75 5.75 0 1 0 -11.5 0zM235.75 356.5 a5.75 5.75 0 1 0 11.5 0 a5.75 5.75 0 1 0 -11.5 0z" fill="rgba(31, 49, 79, 0.81)"></path><path d="M379.5 494.5L379.5 586.5L356.5 609.5L356.5 701.5" stroke-width="3.83" stroke="rgba(31, 49, 79, 0.81)"></path><path d="M373.75 494.5 a5.75 5.75 0 1 0 11.5 0 a5.75 5.75 0 1 0 -11.5 0zM350.75 701.5 a5.75 5.75 0 1 0 11.5 0 a5.75 5.75 0 1 0 -11.5 0z" fill="rgba(31, 49, 79, 0.81)"></path><path d="M1069.5 908.5L954.5 908.5" stroke-width="3.83" stroke="rgba(31, 49, 79, 0.81)"></path><path d="M1063.75 908.5 a5.75 5.75 0 1 0 11.5 0 a5.75 5.75 0 1 0 -11.5 0zM948.75 908.5 a5.75 5.75 0 1 0 11.5 0 a5.75 5.75 0 1 0 -11.5 0z" fill="rgba(31, 49, 79, 0.81)"></path><path d="M885.5 977.5L931.5 931.5" stroke-width="3.83" stroke="rgba(31, 49, 79, 0.81)"></path><path d="M879.75 977.5 a5.75 5.75 0 1 0 11.5 0 a5.75 5.75 0 1 0 -11.5 0zM925.75 931.5 a5.75 5.75 0 1 0 11.5 0 a5.75 5.75 0 1 0 -11.5 0z" fill="rgba(31, 49, 79, 0.81)"></path><path d="M1092.5 356.5L1000.5 264.5L977.5 264.5" stroke-width="3.83" stroke="rgba(31, 49, 79, 0.81)"></path><path d="M1086.75 356.5 a5.75 5.75 0 1 0 11.5 0 a5.75 5.75 0 1 0 -11.5 0zM971.75 264.5 a5.75 5.75 0 1 0 11.5 0 a5.75 5.75 0 1 0 -11.5 0z" fill="rgba(31, 49, 79, 0.81)"></path><path d="M126.5 655.5L126.5 609.5L103.5 586.5L57.5 586.5" stroke-width="3.83" stroke="rgba(31, 49, 79, 0.81)"></path><path d="M120.75 655.5 a5.75 5.75 0 1 0 11.5 0 a5.75 5.75 0 1 0 -11.5 0zM51.75 586.5 a5.75 5.75 0 1 0 11.5 0 a5.75 5.75 0 1 0 -11.5 0z" fill="rgba(31, 49, 79, 0.81)"></path><path d="M218.5 494.5L356.5 494.5L379.5 471.5L379.5 448.5L333.5 402.5L310.5 402.5L241.5 471.5" stroke-width="3.83" stroke="rgba(31, 49, 79, 0.81)"></path><path d="M212.75 494.5 a5.75 5.75 0 1 0 11.5 0 a5.75 5.75 0 1 0 -11.5 0zM235.75 471.5 a5.75 5.75 0 1 0 11.5 0 a5.75 5.75 0 1 0 -11.5 0z" fill="rgba(31, 49, 79, 0.81)"></path><path d="M126.5 333.5L126.5 264.5" stroke-width="3.83" stroke="rgba(31, 49, 79, 0.81)"></path><path d="M120.75 333.5 a5.75 5.75 0 1 0 11.5 0 a5.75 5.75 0 1 0 -11.5 0zM120.75 264.5 a5.75 5.75 0 1 0 11.5 0 a5.75 5.75 0 1 0 -11.5 0z" fill="rgba(31, 49, 79, 0.81)"></path><path d="M57.5 356.5L34.5 379.5L34.5 425.5L57.5 448.5L195.5 448.5" stroke-width="3.83" stroke="rgba(31, 49, 79, 0.81)"></path><path d="M51.75 356.5 a5.75 5.75 0 1 0 11.5 0 a5.75 5.75 0 1 0 -11.5 0zM189.75 448.5 a5.75 5.75 0 1 0 11.5 0 a5.75 5.75 0 1 0 -11.5 0z" fill="rgba(31, 49, 79, 0.81)"></path><path d="M816.5 80.5L885.5 11.5L977.5 11.5" stroke-width="3.83" stroke="rgba(31, 49, 79, 0.81)"></path><path d="M810.75 80.5 a5.75 5.75 0 1 0 11.5 0 a5.75 5.75 0 1 0 -11.5 0zM971.75 11.5 a5.75 5.75 0 1 0 11.5 0 a5.75 5.75 0 1 0 -11.5 0z" fill="rgba(31, 49, 79, 0.81)"></path><path d="M494.5 471.5L356.5 333.5" stroke-width="3.83" stroke="rgba(31, 49, 79, 0.81)"></path><path d="M488.75 471.5 a5.75 5.75 0 1 0 11.5 0 a5.75 5.75 0 1 0 -11.5 0zM350.75 333.5 a5.75 5.75 0 1 0 11.5 0 a5.75 5.75 0 1 0 -11.5 0z" fill="rgba(31, 49, 79, 0.81)"></path><path d="M678.5 655.5L678.5 678.5L563.5 793.5L540.5 793.5L494.5 747.5L494.5 724.5" stroke-width="3.83" stroke="rgba(31, 49, 79, 0.81)"></path><path d="M672.75 655.5 a5.75 5.75 0 1 0 11.5 0 a5.75 5.75 0 1 0 -11.5 0zM488.75 724.5 a5.75 5.75 0 1 0 11.5 0 a5.75 5.75 0 1 0 -11.5 0z" fill="rgba(31, 49, 79, 0.81)"></path><path d="M172.5 770.5L218.5 816.5L356.5 816.5" stroke-width="3.83" stroke="rgba(31, 49, 79, 0.81)"></path><path d="M166.75 770.5 a5.75 5.75 0 1 0 11.5 0 a5.75 5.75 0 1 0 -11.5 0zM350.75 816.5 a5.75 5.75 0 1 0 11.5 0 a5.75 5.75 0 1 0 -11.5 0z" fill="rgba(31, 49, 79, 0.81)"></path><path d="M1092.5 333.5L1023.5 264.5" stroke-width="3.83" stroke="rgba(31, 49, 79, 0.81)"></path><path d="M1086.75 333.5 a5.75 5.75 0 1 0 11.5 0 a5.75 5.75 0 1 0 -11.5 0zM1017.75 264.5 a5.75 5.75 0 1 0 11.5 0 a5.75 5.75 0 1 0 -11.5 0z" fill="rgba(31, 49, 79, 0.81)"></path><path d="M609.5 195.5L632.5 172.5L632.5 34.5" stroke-width="3.83" stroke="rgba(31, 49, 79, 0.81)"></path><path d="M603.75 195.5 a5.75 5.75 0 1 0 11.5 0 a5.75 5.75 0 1 0 -11.5 0zM626.75 34.5 a5.75 5.75 0 1 0 11.5 0 a5.75 5.75 0 1 0 -11.5 0z" fill="rgba(31, 49, 79, 0.81)"></path><path d="M540.5 103.5L540.5 80.5L563.5 57.5L609.5 57.5" stroke-width="3.83" stroke="rgba(31, 49, 79, 0.81)"></path><path d="M534.75 103.5 a5.75 5.75 0 1 0 11.5 0 a5.75 5.75 0 1 0 -11.5 0zM603.75 57.5 a5.75 5.75 0 1 0 11.5 0 a5.75 5.75 0 1 0 -11.5 0z" fill="rgba(31, 49, 79, 0.81)"></path><path d="M264.5 103.5L241.5 103.5L149.5 195.5L149.5 218.5" stroke-width="3.83" stroke="rgba(31, 49, 79, 0.81)"></path><path d="M258.75 103.5 a5.75 5.75 0 1 0 11.5 0 a5.75 5.75 0 1 0 -11.5 0zM143.75 218.5 a5.75 5.75 0 1 0 11.5 0 a5.75 5.75 0 1 0 -11.5 0z" fill="rgba(31, 49, 79, 0.81)"></path><path d="M540.5 448.5L563.5 471.5L563.5 494.5" stroke-width="3.83" stroke="rgba(31, 49, 79, 0.81)"></path><path d="M534.75 448.5 a5.75 5.75 0 1 0 11.5 0 a5.75 5.75 0 1 0 -11.5 0zM557.75 494.5 a5.75 5.75 0 1 0 11.5 0 a5.75 5.75 0 1 0 -11.5 0z" fill="rgba(31, 49, 79, 0.81)"></path><path d="M839.5 333.5L862.5 310.5L931.5 310.5" stroke-width="3.83" stroke="rgba(31, 49, 79, 0.81)"></path><path d="M833.75 333.5 a5.75 5.75 0 1 0 11.5 0 a5.75 5.75 0 1 0 -11.5 0zM925.75 310.5 a5.75 5.75 0 1 0 11.5 0 a5.75 5.75 0 1 0 -11.5 0z" fill="rgba(31, 49, 79, 0.81)"></path><path d="M425.5 931.5L494.5 931.5" stroke-width="3.83" stroke="rgba(31, 49, 79, 0.81)"></path><path d="M419.75 931.5 a5.75 5.75 0 1 0 11.5 0 a5.75 5.75 0 1 0 -11.5 0zM488.75 931.5 a5.75 5.75 0 1 0 11.5 0 a5.75 5.75 0 1 0 -11.5 0z" fill="rgba(31, 49, 79, 0.81)"></path><path d="M195.5 172.5L218.5 195.5L241.5 195.5" stroke-width="3.83" stroke="rgba(31, 49, 79, 0.81)"></path><path d="M189.75 172.5 a5.75 5.75 0 1 0 11.5 0 a5.75 5.75 0 1 0 -11.5 0zM235.75 195.5 a5.75 5.75 0 1 0 11.5 0 a5.75 5.75 0 1 0 -11.5 0z" fill="rgba(31, 49, 79, 0.81)"></path><path d="M678.5 563.5L724.5 517.5L724.5 494.5L678.5 448.5" stroke-width="3.83" stroke="rgba(31, 49, 79, 0.81)"></path><path d="M672.75 563.5 a5.75 5.75 0 1 0 11.5 0 a5.75 5.75 0 1 0 -11.5 0zM672.75 448.5 a5.75 5.75 0 1 0 11.5 0 a5.75 5.75 0 1 0 -11.5 0z" fill="rgba(31, 49, 79, 0.81)"></path><path d="M977.5 724.5L954.5 701.5L954.5 678.5L977.5 655.5" stroke-width="3.83" stroke="rgba(31, 49, 79, 0.81)"></path><path d="M971.75 724.5 a5.75 5.75 0 1 0 11.5 0 a5.75 5.75 0 1 0 -11.5 0zM971.75 655.5 a5.75 5.75 0 1 0 11.5 0 a5.75 5.75 0 1 0 -11.5 0z" fill="rgba(31, 49, 79, 0.81)"></path><path d="M724.5 839.5L862.5 701.5L862.5 678.5" stroke-width="3.83" stroke="rgba(31, 49, 79, 0.81)"></path><path d="M718.75 839.5 a5.75 5.75 0 1 0 11.5 0 a5.75 5.75 0 1 0 -11.5 0zM856.75 678.5 a5.75 5.75 0 1 0 11.5 0 a5.75 5.75 0 1 0 -11.5 0z" fill="rgba(31, 49, 79, 0.81)"></path><path d="M1023.5 954.5L1069.5 954.5" stroke-width="3.83" stroke="rgba(31, 49, 79, 0.81)"></path><path d="M1017.75 954.5 a5.75 5.75 0 1 0 11.5 0 a5.75 5.75 0 1 0 -11.5 0zM1063.75 954.5 a5.75 5.75 0 1 0 11.5 0 a5.75 5.75 0 1 0 -11.5 0z" fill="rgba(31, 49, 79, 0.81)"></path><path d="M80.5 908.5L57.5 885.5L57.5 862.5L80.5 839.5L103.5 839.5L172.5 908.5L195.5 908.5L241.5 862.5" stroke-width="3.83" stroke="rgba(31, 49, 79, 0.81)"></path><path d="M74.75 908.5 a5.75 5.75 0 1 0 11.5 0 a5.75 5.75 0 1 0 -11.5 0zM235.75 862.5 a5.75 5.75 0 1 0 11.5 0 a5.75 5.75 0 1 0 -11.5 0z" fill="rgba(31, 49, 79, 0.81)"></path><path d="M747.5 701.5L747.5 747.5L701.5 793.5L701.5 862.5" stroke-width="3.83" stroke="rgba(31, 49, 79, 0.81)"></path><path d="M741.75 701.5 a5.75 5.75 0 1 0 11.5 0 a5.75 5.75 0 1 0 -11.5 0zM695.75 862.5 a5.75 5.75 0 1 0 11.5 0 a5.75 5.75 0 1 0 -11.5 0z" fill="rgba(31, 49, 79, 0.81)"></path><path d="M218.5 747.5L195.5 724.5L195.5 701.5L172.5 678.5" stroke-width="3.83" stroke="rgba(31, 49, 79, 0.81)"></path><path d="M212.75 747.5 a5.75 5.75 0 1 0 11.5 0 a5.75 5.75 0 1 0 -11.5 0zM166.75 678.5 a5.75 5.75 0 1 0 11.5 0 a5.75 5.75 0 1 0 -11.5 0z" fill="rgba(31, 49, 79, 0.81)"></path><path d="M1092.5 586.5L1138.5 586.5" stroke-width="3.83" stroke="rgba(31, 49, 79, 0.81)"></path><path d="M1086.75 586.5 a5.75 5.75 0 1 0 11.5 0 a5.75 5.75 0 1 0 -11.5 0zM1132.75 586.5 a5.75 5.75 0 1 0 11.5 0 a5.75 5.75 0 1 0 -11.5 0z" fill="rgba(31, 49, 79, 0.81)"></path><path d="M103.5 57.5L103.5 80.5L126.5 103.5" stroke-width="3.83" stroke="rgba(31, 49, 79, 0.81)"></path><path d="M97.75 57.5 a5.75 5.75 0 1 0 11.5 0 a5.75 5.75 0 1 0 -11.5 0zM120.75 103.5 a5.75 5.75 0 1 0 11.5 0 a5.75 5.75 0 1 0 -11.5 0z" fill="rgba(31, 49, 79, 0.81)"></path><path d="M471.5 195.5L517.5 241.5L609.5 241.5" stroke-width="3.83" stroke="rgba(31, 49, 79, 0.81)"></path><path d="M465.75 195.5 a5.75 5.75 0 1 0 11.5 0 a5.75 5.75 0 1 0 -11.5 0zM603.75 241.5 a5.75 5.75 0 1 0 11.5 0 a5.75 5.75 0 1 0 -11.5 0z" fill="rgba(31, 49, 79, 0.81)"></path><path d="M954.5 839.5L954.5 862.5L931.5 885.5L908.5 885.5L885.5 862.5L885.5 816.5" stroke-width="3.83" stroke="rgba(31, 49, 79, 0.81)"></path><path d="M948.75 839.5 a5.75 5.75 0 1 0 11.5 0 a5.75 5.75 0 1 0 -11.5 0zM879.75 816.5 a5.75 5.75 0 1 0 11.5 0 a5.75 5.75 0 1 0 -11.5 0z" fill="rgba(31, 49, 79, 0.81)"></path><path d="M1023.5 885.5L977.5 885.5" stroke-width="3.83" stroke="rgba(31, 49, 79, 0.81)"></path><path d="M1017.75 885.5 a5.75 5.75 0 1 0 11.5 0 a5.75 5.75 0 1 0 -11.5 0zM971.75 885.5 a5.75 5.75 0 1 0 11.5 0 a5.75 5.75 0 1 0 -11.5 0z" fill="rgba(31, 49, 79, 0.81)"></path><path d="M11.5 149.5L103.5 149.5" stroke-width="3.83" stroke="rgba(31, 49, 79, 0.81)"></path><path d="M5.75 149.5 a5.75 5.75 0 1 0 11.5 0 a5.75 5.75 0 1 0 -11.5 0zM97.75 149.5 a5.75 5.75 0 1 0 11.5 0 a5.75 5.75 0 1 0 -11.5 0z" fill="rgba(31, 49, 79, 0.81)"></path><path d="M632.5 563.5L632.5 448.5" stroke-width="3.83" stroke="rgba(31, 49, 79, 0.81)"></path><path d="M626.75 563.5 a5.75 5.75 0 1 0 11.5 0 a5.75 5.75 0 1 0 -11.5 0zM626.75 448.5 a5.75 5.75 0 1 0 11.5 0 a5.75 5.75 0 1 0 -11.5 0z" fill="rgba(31, 49, 79, 0.81)"></path><path d="M11.5 724.5L11.5 655.5" stroke-width="3.83" stroke="rgba(31, 49, 79, 0.81)"></path><path d="M5.75 724.5 a5.75 5.75 0 1 0 11.5 0 a5.75 5.75 0 1 0 -11.5 0zM5.75 655.5 a5.75 5.75 0 1 0 11.5 0 a5.75 5.75 0 1 0 -11.5 0z" fill="rgba(31, 49, 79, 0.81)"></path><path d="M195.5 517.5L310.5 632.5" stroke-width="3.83" stroke="rgba(31, 49, 79, 0.81)"></path><path d="M189.75 517.5 a5.75 5.75 0 1 0 11.5 0 a5.75 5.75 0 1 0 -11.5 0zM304.75 632.5 a5.75 5.75 0 1 0 11.5 0 a5.75 5.75 0 1 0 -11.5 0z" fill="rgba(31, 49, 79, 0.81)"></path><path d="M632.5 632.5L724.5 632.5L747.5 609.5L747.5 586.5L770.5 563.5L770.5 540.5" stroke-width="3.83" stroke="rgba(31, 49, 79, 0.81)"></path><path d="M626.75 632.5 a5.75 5.75 0 1 0 11.5 0 a5.75 5.75 0 1 0 -11.5 0zM764.75 540.5 a5.75 5.75 0 1 0 11.5 0 a5.75 5.75 0 1 0 -11.5 0z" fill="rgba(31, 49, 79, 0.81)"></path><path d="M724.5 1000.5L747.5 977.5L816.5 977.5" stroke-width="3.83" stroke="rgba(31, 49, 79, 0.81)"></path><path d="M718.75 1000.5 a5.75 5.75 0 1 0 11.5 0 a5.75 5.75 0 1 0 -11.5 0zM810.75 977.5 a5.75 5.75 0 1 0 11.5 0 a5.75 5.75 0 1 0 -11.5 0z" fill="rgba(31, 49, 79, 0.81)"></path><path d="M678.5 57.5L701.5 80.5L770.5 80.5" stroke-width="3.83" stroke="rgba(31, 49, 79, 0.81)"></path><path d="M672.75 57.5 a5.75 5.75 0 1 0 11.5 0 a5.75 5.75 0 1 0 -11.5 0zM764.75 80.5 a5.75 5.75 0 1 0 11.5 0 a5.75 5.75 0 1 0 -11.5 0z" fill="rgba(31, 49, 79, 0.81)"></path><path d="M11.5 1000.5L11.5 954.5" stroke-width="3.83" stroke="rgba(31, 49, 79, 0.81)"></path><path d="M5.75 1000.5 a5.75 5.75 0 1 0 11.5 0 a5.75 5.75 0 1 0 -11.5 0zM5.75 954.5 a5.75 5.75 0 1 0 11.5 0 a5.75 5.75 0 1 0 -11.5 0z" fill="rgba(31, 49, 79, 0.81)"></path><path d="M448.5 885.5L402.5 885.5" stroke-width="3.83" stroke="rgba(31, 49, 79, 0.81)"></path><path d="M442.75 885.5 a5.75 5.75 0 1 0 11.5 0 a5.75 5.75 0 1 0 -11.5 0zM396.75 885.5 a5.75 5.75 0 1 0 11.5 0 a5.75 5.75 0 1 0 -11.5 0z" fill="rgba(31, 49, 79, 0.81)"></path><path d="M172.5 287.5L195.5 287.5L218.5 264.5" stroke-width="3.83" stroke="rgba(31, 49, 79, 0.81)"></path><path d="M166.75 287.5 a5.75 5.75 0 1 0 11.5 0 a5.75 5.75 0 1 0 -11.5 0zM212.75 264.5 a5.75 5.75 0 1 0 11.5 0 a5.75 5.75 0 1 0 -11.5 0z" fill="rgba(31, 49, 79, 0.81)"></path><path d="M931.5 448.5L977.5 448.5" stroke-width="3.83" stroke="rgba(31, 49, 79, 0.81)"></path><path d="M925.75 448.5 a5.75 5.75 0 1 0 11.5 0 a5.75 5.75 0 1 0 -11.5 0zM971.75 448.5 a5.75 5.75 0 1 0 11.5 0 a5.75 5.75 0 1 0 -11.5 0z" fill="rgba(31, 49, 79, 0.81)"></path><path d="M977.5 747.5L1046.5 747.5" stroke-width="3.83" stroke="rgba(31, 49, 79, 0.81)"></path><path d="M971.75 747.5 a5.75 5.75 0 1 0 11.5 0 a5.75 5.75 0 1 0 -11.5 0zM1040.75 747.5 a5.75 5.75 0 1 0 11.5 0 a5.75 5.75 0 1 0 -11.5 0z" fill="rgba(31, 49, 79, 0.81)"></path><path d="M563.5 655.5L563.5 563.5" stroke-width="3.83" stroke="rgba(31, 49, 79, 0.81)"></path><path d="M557.75 655.5 a5.75 5.75 0 1 0 11.5 0 a5.75 5.75 0 1 0 -11.5 0zM557.75 563.5 a5.75 5.75 0 1 0 11.5 0 a5.75 5.75 0 1 0 -11.5 0z" fill="rgba(31, 49, 79, 0.81)"></path><path d="M218.5 172.5L218.5 149.5L241.5 126.5L264.5 126.5" stroke-width="3.83" stroke="rgba(31, 49, 79, 0.81)"></path><path d="M212.75 172.5 a5.75 5.75 0 1 0 11.5 0 a5.75 5.75 0 1 0 -11.5 0zM258.75 126.5 a5.75 5.75 0 1 0 11.5 0 a5.75 5.75 0 1 0 -11.5 0z" fill="rgba(31, 49, 79, 0.81)"></path><path d="M11.5 908.5L57.5 908.5" stroke-width="3.83" stroke="rgba(31, 49, 79, 0.81)"></path><path d="M5.75 908.5 a5.75 5.75 0 1 0 11.5 0 a5.75 5.75 0 1 0 -11.5 0zM51.75 908.5 a5.75 5.75 0 1 0 11.5 0 a5.75 5.75 0 1 0 -11.5 0z" fill="rgba(31, 49, 79, 0.81)"></path><path d="M471.5 494.5L471.5 471.5L356.5 356.5L333.5 356.5" stroke-width="3.83" stroke="rgba(31, 49, 79, 0.81)"></path><path d="M465.75 494.5 a5.75 5.75 0 1 0 11.5 0 a5.75 5.75 0 1 0 -11.5 0zM327.75 356.5 a5.75 5.75 0 1 0 11.5 0 a5.75 5.75 0 1 0 -11.5 0z" fill="rgba(31, 49, 79, 0.81)"></path><path d="M172.5 540.5L195.5 540.5L241.5 586.5L241.5 609.5" stroke-width="3.83" stroke="rgba(31, 49, 79, 0.81)"></path><path d="M166.75 540.5 a5.75 5.75 0 1 0 11.5 0 a5.75 5.75 0 1 0 -11.5 0zM235.75 609.5 a5.75 5.75 0 1 0 11.5 0 a5.75 5.75 0 1 0 -11.5 0z" fill="rgba(31, 49, 79, 0.81)"></path><path d="M126.5 885.5L103.5 862.5L80.5 862.5" stroke-width="3.83" stroke="rgba(31, 49, 79, 0.81)"></path><path d="M120.75 885.5 a5.75 5.75 0 1 0 11.5 0 a5.75 5.75 0 1 0 -11.5 0zM74.75 862.5 a5.75 5.75 0 1 0 11.5 0 a5.75 5.75 0 1 0 -11.5 0z" fill="rgba(31, 49, 79, 0.81)"></path><path d="M310.5 195.5L310.5 149.5L333.5 126.5" stroke-width="3.83" stroke="rgba(31, 49, 79, 0.81)"></path><path d="M304.75 195.5 a5.75 5.75 0 1 0 11.5 0 a5.75 5.75 0 1 0 -11.5 0zM327.75 126.5 a5.75 5.75 0 1 0 11.5 0 a5.75 5.75 0 1 0 -11.5 0z" fill="rgba(31, 49, 79, 0.81)"></path><path d="M264.5 517.5L310.5 563.5L310.5 609.5" stroke-width="3.83" stroke="rgba(31, 49, 79, 0.81)"></path><path d="M258.75 517.5 a5.75 5.75 0 1 0 11.5 0 a5.75 5.75 0 1 0 -11.5 0zM304.75 609.5 a5.75 5.75 0 1 0 11.5 0 a5.75 5.75 0 1 0 -11.5 0z" fill="rgba(31, 49, 79, 0.81)"></path><path d="M977.5 954.5L931.5 1000.5L862.5 1000.5" stroke-width="3.83" stroke="rgba(31, 49, 79, 0.81)"></path><path d="M971.75 954.5 a5.75 5.75 0 1 0 11.5 0 a5.75 5.75 0 1 0 -11.5 0zM856.75 1000.5 a5.75 5.75 0 1 0 11.5 0 a5.75 5.75 0 1 0 -11.5 0z" fill="rgba(31, 49, 79, 0.81)"></path><path d="M609.5 218.5L540.5 149.5L425.5 149.5L402.5 126.5L402.5 57.5L425.5 34.5L540.5 34.5" stroke-width="3.83" stroke="rgba(31, 49, 79, 0.81)"></path><path d="M603.75 218.5 a5.75 5.75 0 1 0 11.5 0 a5.75 5.75 0 1 0 -11.5 0zM534.75 34.5 a5.75 5.75 0 1 0 11.5 0 a5.75 5.75 0 1 0 -11.5 0z" fill="rgba(31, 49, 79, 0.81)"></path><path d="M494.5 57.5L494.5 126.5" stroke-width="3.83" stroke="rgba(31, 49, 79, 0.81)"></path><path d="M488.75 57.5 a5.75 5.75 0 1 0 11.5 0 a5.75 5.75 0 1 0 -11.5 0zM488.75 126.5 a5.75 5.75 0 1 0 11.5 0 a5.75 5.75 0 1 0 -11.5 0z" fill="rgba(31, 49, 79, 0.81)"></path><path d="M1092.5 287.5L1115.5 310.5L1115.5 379.5L1092.5 402.5L908.5 402.5" stroke-width="3.83" stroke="rgba(31, 49, 79, 0.81)"></path><path d="M1086.75 287.5 a5.75 5.75 0 1 0 11.5 0 a5.75 5.75 0 1 0 -11.5 0zM902.75 402.5 a5.75 5.75 0 1 0 11.5 0 a5.75 5.75 0 1 0 -11.5 0z" fill="rgba(31, 49, 79, 0.81)"></path><path d="M195.5 402.5L241.5 402.5" stroke-width="3.83" stroke="rgba(31, 49, 79, 0.81)"></path><path d="M189.75 402.5 a5.75 5.75 0 1 0 11.5 0 a5.75 5.75 0 1 0 -11.5 0zM235.75 402.5 a5.75 5.75 0 1 0 11.5 0 a5.75 5.75 0 1 0 -11.5 0z" fill="rgba(31, 49, 79, 0.81)"></path><path d="M34.5 471.5L11.5 494.5L11.5 540.5" stroke-width="3.83" stroke="rgba(31, 49, 79, 0.81)"></path><path d="M28.75 471.5 a5.75 5.75 0 1 0 11.5 0 a5.75 5.75 0 1 0 -11.5 0zM5.75 540.5 a5.75 5.75 0 1 0 11.5 0 a5.75 5.75 0 1 0 -11.5 0z" fill="rgba(31, 49, 79, 0.81)"></path><path d="M103.5 126.5L34.5 57.5" stroke-width="3.83" stroke="rgba(31, 49, 79, 0.81)"></path><path d="M97.75 126.5 a5.75 5.75 0 1 0 11.5 0 a5.75 5.75 0 1 0 -11.5 0zM28.75 57.5 a5.75 5.75 0 1 0 11.5 0 a5.75 5.75 0 1 0 -11.5 0z" fill="rgba(31, 49, 79, 0.81)"></path><path d="M977.5 770.5L839.5 770.5" stroke-width="3.83" stroke="rgba(31, 49, 79, 0.81)"></path><path d="M971.75 770.5 a5.75 5.75 0 1 0 11.5 0 a5.75 5.75 0 1 0 -11.5 0zM833.75 770.5 a5.75 5.75 0 1 0 11.5 0 a5.75 5.75 0 1 0 -11.5 0z" fill="rgba(31, 49, 79, 0.81)"></path><path d="M1092.5 563.5L1023.5 632.5L1023.5 655.5L1046.5 678.5L1069.5 678.5L1138.5 609.5" stroke-width="3.83" stroke="rgba(31, 49, 79, 0.81)"></path><path d="M1086.75 563.5 a5.75 5.75 0 1 0 11.5 0 a5.75 5.75 0 1 0 -11.5 0zM1132.75 609.5 a5.75 5.75 0 1 0 11.5 0 a5.75 5.75 0 1 0 -11.5 0z" fill="rgba(31, 49, 79, 0.81)"></path><path d="M724.5 563.5L724.5 609.5" stroke-width="3.83" stroke="rgba(31, 49, 79, 0.81)"></path><path d="M718.75 563.5 a5.75 5.75 0 1 0 11.5 0 a5.75 5.75 0 1 0 -11.5 0zM718.75 609.5 a5.75 5.75 0 1 0 11.5 0 a5.75 5.75 0 1 0 -11.5 0z" fill="rgba(31, 49, 79, 0.81)"></path><path d="M908.5 977.5L931.5 977.5L954.5 954.5" stroke-width="3.83" stroke="rgba(31, 49, 79, 0.81)"></path><path d="M902.75 977.5 a5.75 5.75 0 1 0 11.5 0 a5.75 5.75 0 1 0 -11.5 0zM948.75 954.5 a5.75 5.75 0 1 0 11.5 0 a5.75 5.75 0 1 0 -11.5 0z" fill="rgba(31, 49, 79, 0.81)"></path><path d="M839.5 494.5L793.5 494.5" stroke-width="3.83" stroke="rgba(31, 49, 79, 0.81)"></path><path d="M833.75 494.5 a5.75 5.75 0 1 0 11.5 0 a5.75 5.75 0 1 0 -11.5 0zM787.75 494.5 a5.75 5.75 0 1 0 11.5 0 a5.75 5.75 0 1 0 -11.5 0z" fill="rgba(31, 49, 79, 0.81)"></path><path d="M57.5 655.5L34.5 632.5L34.5 609.5" stroke-width="3.83" stroke="rgba(31, 49, 79, 0.81)"></path><path d="M51.75 655.5 a5.75 5.75 0 1 0 11.5 0 a5.75 5.75 0 1 0 -11.5 0zM28.75 609.5 a5.75 5.75 0 1 0 11.5 0 a5.75 5.75 0 1 0 -11.5 0z" fill="rgba(31, 49, 79, 0.81)"></path><path d="M333.5 195.5L333.5 149.5" stroke-width="3.83" stroke="rgba(31, 49, 79, 0.81)"></path><path d="M327.75 195.5 a5.75 5.75 0 1 0 11.5 0 a5.75 5.75 0 1 0 -11.5 0zM327.75 149.5 a5.75 5.75 0 1 0 11.5 0 a5.75 5.75 0 1 0 -11.5 0z" fill="rgba(31, 49, 79, 0.81)"></path><path d="M310.5 862.5L287.5 885.5L287.5 931.5" stroke-width="3.83" stroke="rgba(31, 49, 79, 0.81)"></path><path d="M304.75 862.5 a5.75 5.75 0 1 0 11.5 0 a5.75 5.75 0 1 0 -11.5 0zM281.75 931.5 a5.75 5.75 0 1 0 11.5 0 a5.75 5.75 0 1 0 -11.5 0z" fill="rgba(31, 49, 79, 0.81)"></path><path d="M57.5 724.5L80.5 747.5L103.5 747.5L126.5 724.5L126.5 678.5L103.5 655.5L103.5 609.5" stroke-width="3.83" stroke="rgba(31, 49, 79, 0.81)"></path><path d="M51.75 724.5 a5.75 5.75 0 1 0 11.5 0 a5.75 5.75 0 1 0 -11.5 0zM97.75 609.5 a5.75 5.75 0 1 0 11.5 0 a5.75 5.75 0 1 0 -11.5 0z" fill="rgba(31, 49, 79, 0.81)"></path><path d="M563.5 264.5L609.5 264.5" stroke-width="3.83" stroke="rgba(31, 49, 79, 0.81)"></path><path d="M557.75 264.5 a5.75 5.75 0 1 0 11.5 0 a5.75 5.75 0 1 0 -11.5 0zM603.75 264.5 a5.75 5.75 0 1 0 11.5 0 a5.75 5.75 0 1 0 -11.5 0z" fill="rgba(31, 49, 79, 0.81)"></path><path d="M885.5 103.5L954.5 172.5" stroke-width="3.83" stroke="rgba(31, 49, 79, 0.81)"></path><path d="M879.75 103.5 a5.75 5.75 0 1 0 11.5 0 a5.75 5.75 0 1 0 -11.5 0zM948.75 172.5 a5.75 5.75 0 1 0 11.5 0 a5.75 5.75 0 1 0 -11.5 0z" fill="rgba(31, 49, 79, 0.81)"></path><path d="M494.5 839.5L494.5 908.5" stroke-width="3.83" stroke="rgba(31, 49, 79, 0.81)"></path><path d="M488.75 839.5 a5.75 5.75 0 1 0 11.5 0 a5.75 5.75 0 1 0 -11.5 0zM488.75 908.5 a5.75 5.75 0 1 0 11.5 0 a5.75 5.75 0 1 0 -11.5 0z" fill="rgba(31, 49, 79, 0.81)"></path><path d="M1000.5 724.5L1046.5 724.5" stroke-width="3.83" stroke="rgba(31, 49, 79, 0.81)"></path><path d="M994.75 724.5 a5.75 5.75 0 1 0 11.5 0 a5.75 5.75 0 1 0 -11.5 0zM1040.75 724.5 a5.75 5.75 0 1 0 11.5 0 a5.75 5.75 0 1 0 -11.5 0z" fill="rgba(31, 49, 79, 0.81)"></path><path d="M494.5 195.5L471.5 172.5L448.5 172.5" stroke-width="3.83" stroke="rgba(31, 49, 79, 0.81)"></path><path d="M488.75 195.5 a5.75 5.75 0 1 0 11.5 0 a5.75 5.75 0 1 0 -11.5 0zM442.75 172.5 a5.75 5.75 0 1 0 11.5 0 a5.75 5.75 0 1 0 -11.5 0z" fill="rgba(31, 49, 79, 0.81)"></path><path d="M494.5 563.5L448.5 563.5" stroke-width="3.83" stroke="rgba(31, 49, 79, 0.81)"></path><path d="M488.75 563.5 a5.75 5.75 0 1 0 11.5 0 a5.75 5.75 0 1 0 -11.5 0zM442.75 563.5 a5.75 5.75 0 1 0 11.5 0 a5.75 5.75 0 1 0 -11.5 0z" fill="rgba(31, 49, 79, 0.81)"></path><path d="M816.5 632.5L816.5 678.5" stroke-width="3.83" stroke="rgba(31, 49, 79, 0.81)"></path><path d="M810.75 632.5 a5.75 5.75 0 1 0 11.5 0 a5.75 5.75 0 1 0 -11.5 0zM810.75 678.5 a5.75 5.75 0 1 0 11.5 0 a5.75 5.75 0 1 0 -11.5 0z" fill="rgba(31, 49, 79, 0.81)"></path><path d="M1092.5 609.5L1046.5 655.5" stroke-width="3.83" stroke="rgba(31, 49, 79, 0.81)"></path><path d="M1086.75 609.5 a5.75 5.75 0 1 0 11.5 0 a5.75 5.75 0 1 0 -11.5 0zM1040.75 655.5 a5.75 5.75 0 1 0 11.5 0 a5.75 5.75 0 1 0 -11.5 0z" fill="rgba(31, 49, 79, 0.81)"></path><path d="M1138.5 839.5L1092.5 793.5L1092.5 770.5" stroke-width="3.83" stroke="rgba(31, 49, 79, 0.81)"></path><path d="M1132.75 839.5 a5.75 5.75 0 1 0 11.5 0 a5.75 5.75 0 1 0 -11.5 0zM1086.75 770.5 a5.75 5.75 0 1 0 11.5 0 a5.75 5.75 0 1 0 -11.5 0z" fill="rgba(31, 49, 79, 0.81)"></path><path d="M241.5 977.5L126.5 977.5L103.5 1000.5L57.5 1000.5" stroke-width="3.83" stroke="rgba(31, 49, 79, 0.81)"></path><path d="M235.75 977.5 a5.75 5.75 0 1 0 11.5 0 a5.75 5.75 0 1 0 -11.5 0zM51.75 1000.5 a5.75 5.75 0 1 0 11.5 0 a5.75 5.75 0 1 0 -11.5 0z" fill="rgba(31, 49, 79, 0.81)"></path><path d="M1046.5 356.5L977.5 356.5L954.5 379.5L908.5 379.5L885.5 356.5L885.5 333.5" stroke-width="3.83" stroke="rgba(31, 49, 79, 0.81)"></path><path d="M1040.75 356.5 a5.75 5.75 0 1 0 11.5 0 a5.75 5.75 0 1 0 -11.5 0zM879.75 333.5 a5.75 5.75 0 1 0 11.5 0 a5.75 5.75 0 1 0 -11.5 0z" fill="rgba(31, 49, 79, 0.81)"></path><path d="M80.5 264.5L34.5 264.5" stroke-width="3.83" stroke="rgba(31, 49, 79, 0.81)"></path><path d="M74.75 264.5 a5.75 5.75 0 1 0 11.5 0 a5.75 5.75 0 1 0 -11.5 0zM28.75 264.5 a5.75 5.75 0 1 0 11.5 0 a5.75 5.75 0 1 0 -11.5 0z" fill="rgba(31, 49, 79, 0.81)"></path><path d="M517.5 126.5L586.5 126.5L609.5 103.5L609.5 80.5" stroke-width="3.83" stroke="rgba(31, 49, 79, 0.81)"></path><path d="M511.75 126.5 a5.75 5.75 0 1 0 11.5 0 a5.75 5.75 0 1 0 -11.5 0zM603.75 80.5 a5.75 5.75 0 1 0 11.5 0 a5.75 5.75 0 1 0 -11.5 0z" fill="rgba(31, 49, 79, 0.81)"></path><path d="M425.5 977.5L448.5 977.5L471.5 954.5L494.5 954.5" stroke-width="3.83" stroke="rgba(31, 49, 79, 0.81)"></path><path d="M419.75 977.5 a5.75 5.75 0 1 0 11.5 0 a5.75 5.75 0 1 0 -11.5 0zM488.75 954.5 a5.75 5.75 0 1 0 11.5 0 a5.75 5.75 0 1 0 -11.5 0z" fill="rgba(31, 49, 79, 0.81)"></path><path d="M494.5 540.5L448.5 494.5L448.5 471.5" stroke-width="3.83" stroke="rgba(31, 49, 79, 0.81)"></path><path d="M488.75 540.5 a5.75 5.75 0 1 0 11.5 0 a5.75 5.75 0 1 0 -11.5 0zM442.75 471.5 a5.75 5.75 0 1 0 11.5 0 a5.75 5.75 0 1 0 -11.5 0z" fill="rgba(31, 49, 79, 0.81)"></path><path d="M977.5 149.5L954.5 149.5L931.5 126.5" stroke-width="3.83" stroke="rgba(31, 49, 79, 0.81)"></path><path d="M971.75 149.5 a5.75 5.75 0 1 0 11.5 0 a5.75 5.75 0 1 0 -11.5 0zM925.75 126.5 a5.75 5.75 0 1 0 11.5 0 a5.75 5.75 0 1 0 -11.5 0z" fill="rgba(31, 49, 79, 0.81)"></path><path d="M655.5 839.5L632.5 816.5L632.5 793.5L655.5 770.5L655.5 747.5" stroke-width="3.83" stroke="rgba(31, 49, 79, 0.81)"></path><path d="M649.75 839.5 a5.75 5.75 0 1 0 11.5 0 a5.75 5.75 0 1 0 -11.5 0zM649.75 747.5 a5.75 5.75 0 1 0 11.5 0 a5.75 5.75 0 1 0 -11.5 0z" fill="rgba(31, 49, 79, 0.81)"></path><path d="M793.5 701.5L770.5 701.5L747.5 678.5" stroke-width="3.83" stroke="rgba(31, 49, 79, 0.81)"></path><path d="M787.75 701.5 a5.75 5.75 0 1 0 11.5 0 a5.75 5.75 0 1 0 -11.5 0zM741.75 678.5 a5.75 5.75 0 1 0 11.5 0 a5.75 5.75 0 1 0 -11.5 0z" fill="rgba(31, 49, 79, 0.81)"></path><path d="M609.5 333.5L747.5 333.5" stroke-width="3.83" stroke="rgba(31, 49, 79, 0.81)"></path><path d="M603.75 333.5 a5.75 5.75 0 1 0 11.5 0 a5.75 5.75 0 1 0 -11.5 0zM741.75 333.5 a5.75 5.75 0 1 0 11.5 0 a5.75 5.75 0 1 0 -11.5 0z" fill="rgba(31, 49, 79, 0.81)"></path><path d="M103.5 425.5L149.5 425.5" stroke-width="3.83" stroke="rgba(31, 49, 79, 0.81)"></path><path d="M97.75 425.5 a5.75 5.75 0 1 0 11.5 0 a5.75 5.75 0 1 0 -11.5 0zM143.75 425.5 a5.75 5.75 0 1 0 11.5 0 a5.75 5.75 0 1 0 -11.5 0z" fill="rgba(31, 49, 79, 0.81)"></path><path d="M149.5 34.5L126.5 11.5L103.5 11.5L80.5 34.5L80.5 57.5" stroke-width="3.83" stroke="rgba(31, 49, 79, 0.81)"></path><path d="M143.75 34.5 a5.75 5.75 0 1 0 11.5 0 a5.75 5.75 0 1 0 -11.5 0zM74.75 57.5 a5.75 5.75 0 1 0 11.5 0 a5.75 5.75 0 1 0 -11.5 0z" fill="rgba(31, 49, 79, 0.81)"></path><path d="M609.5 862.5L609.5 908.5L632.5 931.5" stroke-width="3.83" stroke="rgba(31, 49, 79, 0.81)"></path><path d="M603.75 862.5 a5.75 5.75 0 1 0 11.5 0 a5.75 5.75 0 1 0 -11.5 0zM626.75 931.5 a5.75 5.75 0 1 0 11.5 0 a5.75 5.75 0 1 0 -11.5 0z" fill="rgba(31, 49, 79, 0.81)"></path><path d="M885.5 80.5L977.5 80.5" stroke-width="3.83" stroke="rgba(31, 49, 79, 0.81)"></path><path d="M879.75 80.5 a5.75 5.75 0 1 0 11.5 0 a5.75 5.75 0 1 0 -11.5 0zM971.75 80.5 a5.75 5.75 0 1 0 11.5 0 a5.75 5.75 0 1 0 -11.5 0z" fill="rgba(31, 49, 79, 0.81)"></path><path d="M218.5 517.5L241.5 517.5L287.5 563.5L287.5 586.5" stroke-width="3.83" stroke="rgba(31, 49, 79, 0.81)"></path><path d="M212.75 517.5 a5.75 5.75 0 1 0 11.5 0 a5.75 5.75 0 1 0 -11.5 0zM281.75 586.5 a5.75 5.75 0 1 0 11.5 0 a5.75 5.75 0 1 0 -11.5 0z" fill="rgba(31, 49, 79, 0.81)"></path><path d="M34.5 80.5L80.5 126.5" stroke-width="3.83" stroke="rgba(31, 49, 79, 0.81)"></path><path d="M28.75 80.5 a5.75 5.75 0 1 0 11.5 0 a5.75 5.75 0 1 0 -11.5 0zM74.75 126.5 a5.75 5.75 0 1 0 11.5 0 a5.75 5.75 0 1 0 -11.5 0z" fill="rgba(31, 49, 79, 0.81)"></path><path d="M931.5 816.5L931.5 862.5" stroke-width="3.83" stroke="rgba(31, 49, 79, 0.81)"></path><path d="M925.75 816.5 a5.75 5.75 0 1 0 11.5 0 a5.75 5.75 0 1 0 -11.5 0zM925.75 862.5 a5.75 5.75 0 1 0 11.5 0 a5.75 5.75 0 1 0 -11.5 0z" fill="rgba(31, 49, 79, 0.81)"></path><path d="M1046.5 149.5L1092.5 103.5" stroke-width="3.83" stroke="rgba(31, 49, 79, 0.81)"></path><path d="M1040.75 149.5 a5.75 5.75 0 1 0 11.5 0 a5.75 5.75 0 1 0 -11.5 0zM1086.75 103.5 a5.75 5.75 0 1 0 11.5 0 a5.75 5.75 0 1 0 -11.5 0z" fill="rgba(31, 49, 79, 0.81)"></path><path d="M80.5 379.5L80.5 333.5L103.5 310.5" stroke-width="3.83" stroke="rgba(31, 49, 79, 0.81)"></path><path d="M74.75 379.5 a5.75 5.75 0 1 0 11.5 0 a5.75 5.75 0 1 0 -11.5 0zM97.75 310.5 a5.75 5.75 0 1 0 11.5 0 a5.75 5.75 0 1 0 -11.5 0z" fill="rgba(31, 49, 79, 0.81)"></path><path d="M724.5 57.5L770.5 57.5" stroke-width="3.83" stroke="rgba(31, 49, 79, 0.81)"></path><path d="M718.75 57.5 a5.75 5.75 0 1 0 11.5 0 a5.75 5.75 0 1 0 -11.5 0zM764.75 57.5 a5.75 5.75 0 1 0 11.5 0 a5.75 5.75 0 1 0 -11.5 0z" fill="rgba(31, 49, 79, 0.81)"></path><path d="M1138.5 563.5L1138.5 494.5" stroke-width="3.83" stroke="rgba(31, 49, 79, 0.81)"></path><path d="M1132.75 563.5 a5.75 5.75 0 1 0 11.5 0 a5.75 5.75 0 1 0 -11.5 0zM1132.75 494.5 a5.75 5.75 0 1 0 11.5 0 a5.75 5.75 0 1 0 -11.5 0z" fill="rgba(31, 49, 79, 0.81)"></path><path d="M862.5 103.5L908.5 149.5" stroke-width="3.83" stroke="rgba(31, 49, 79, 0.81)"></path><path d="M856.75 103.5 a5.75 5.75 0 1 0 11.5 0 a5.75 5.75 0 1 0 -11.5 0zM902.75 149.5 a5.75 5.75 0 1 0 11.5 0 a5.75 5.75 0 1 0 -11.5 0z" fill="rgba(31, 49, 79, 0.81)"></path><path d="M287.5 471.5L356.5 471.5" stroke-width="3.83" stroke="rgba(31, 49, 79, 0.81)"></path><path d="M281.75 471.5 a5.75 5.75 0 1 0 11.5 0 a5.75 5.75 0 1 0 -11.5 0zM350.75 471.5 a5.75 5.75 0 1 0 11.5 0 a5.75 5.75 0 1 0 -11.5 0z" fill="rgba(31, 49, 79, 0.81)"></path><path d="M1046.5 839.5L1023.5 839.5L1000.5 862.5" stroke-width="3.83" stroke="rgba(31, 49, 79, 0.81)"></path><path d="M1040.75 839.5 a5.75 5.75 0 1 0 11.5 0 a5.75 5.75 0 1 0 -11.5 0zM994.75 862.5 a5.75 5.75 0 1 0 11.5 0 a5.75 5.75 0 1 0 -11.5 0z" fill="rgba(31, 49, 79, 0.81)"></path><path d="M57.5 425.5L57.5 379.5" stroke-width="3.83" stroke="rgba(31, 49, 79, 0.81)"></path><path d="M51.75 425.5 a5.75 5.75 0 1 0 11.5 0 a5.75 5.75 0 1 0 -11.5 0zM51.75 379.5 a5.75 5.75 0 1 0 11.5 0 a5.75 5.75 0 1 0 -11.5 0z" fill="rgba(31, 49, 79, 0.81)"></path><path d="M931.5 34.5L977.5 34.5" stroke-width="3.83" stroke="rgba(31, 49, 79, 0.81)"></path><path d="M925.75 34.5 a5.75 5.75 0 1 0 11.5 0 a5.75 5.75 0 1 0 -11.5 0zM971.75 34.5 a5.75 5.75 0 1 0 11.5 0 a5.75 5.75 0 1 0 -11.5 0z" fill="rgba(31, 49, 79, 0.81)"></path><path d="M149.5 333.5L149.5 264.5" stroke-width="3.83" stroke="rgba(31, 49, 79, 0.81)"></path><path d="M143.75 333.5 a5.75 5.75 0 1 0 11.5 0 a5.75 5.75 0 1 0 -11.5 0zM143.75 264.5 a5.75 5.75 0 1 0 11.5 0 a5.75 5.75 0 1 0 -11.5 0z" fill="rgba(31, 49, 79, 0.81)"></path><path d="M1138.5 678.5L1138.5 632.5" stroke-width="3.83" stroke="rgba(31, 49, 79, 0.81)"></path><path d="M1132.75 678.5 a5.75 5.75 0 1 0 11.5 0 a5.75 5.75 0 1 0 -11.5 0zM1132.75 632.5 a5.75 5.75 0 1 0 11.5 0 a5.75 5.75 0 1 0 -11.5 0z" fill="rgba(31, 49, 79, 0.81)"></path><path d="M747.5 931.5L793.5 931.5" stroke-width="3.83" stroke="rgba(31, 49, 79, 0.81)"></path><path d="M741.75 931.5 a5.75 5.75 0 1 0 11.5 0 a5.75 5.75 0 1 0 -11.5 0zM787.75 931.5 a5.75 5.75 0 1 0 11.5 0 a5.75 5.75 0 1 0 -11.5 0z" fill="rgba(31, 49, 79, 0.81)"></path><path d="M195.5 954.5L149.5 954.5" stroke-width="3.83" stroke="rgba(31, 49, 79, 0.81)"></path><path d="M189.75 954.5 a5.75 5.75 0 1 0 11.5 0 a5.75 5.75 0 1 0 -11.5 0zM143.75 954.5 a5.75 5.75 0 1 0 11.5 0 a5.75 5.75 0 1 0 -11.5 0z" fill="rgba(31, 49, 79, 0.81)"></path><path d="M517.5 655.5L540.5 655.5L563.5 678.5L563.5 701.5L540.5 724.5" stroke-width="3.83" stroke="rgba(31, 49, 79, 0.81)"></path><path d="M511.75 655.5 a5.75 5.75 0 1 0 11.5 0 a5.75 5.75 0 1 0 -11.5 0zM534.75 724.5 a5.75 5.75 0 1 0 11.5 0 a5.75 5.75 0 1 0 -11.5 0z" fill="rgba(31, 49, 79, 0.81)"></path><path d="M1115.5 241.5L1138.5 264.5L1138.5 287.5" stroke-width="3.83" stroke="rgba(31, 49, 79, 0.81)"></path><path d="M1109.75 241.5 a5.75 5.75 0 1 0 11.5 0 a5.75 5.75 0 1 0 -11.5 0zM1132.75 287.5 a5.75 5.75 0 1 0 11.5 0 a5.75 5.75 0 1 0 -11.5 0z" fill="rgba(31, 49, 79, 0.81)"></path><path d="M885.5 149.5L862.5 172.5L839.5 172.5L816.5 149.5L816.5 103.5L839.5 80.5L862.5 80.5" stroke-width="3.83" stroke="rgba(31, 49, 79, 0.81)"></path><path d="M879.75 149.5 a5.75 5.75 0 1 0 11.5 0 a5.75 5.75 0 1 0 -11.5 0zM856.75 80.5 a5.75 5.75 0 1 0 11.5 0 a5.75 5.75 0 1 0 -11.5 0z" fill="rgba(31, 49, 79, 0.81)"></path><path d="M471.5 862.5L471.5 908.5" stroke-width="3.83" stroke="rgba(31, 49, 79, 0.81)"></path><path d="M465.75 862.5 a5.75 5.75 0 1 0 11.5 0 a5.75 5.75 0 1 0 -11.5 0zM465.75 908.5 a5.75 5.75 0 1 0 11.5 0 a5.75 5.75 0 1 0 -11.5 0z" fill="rgba(31, 49, 79, 0.81)"></path><path d="M80.5 172.5L11.5 172.5" stroke-width="3.83" stroke="rgba(31, 49, 79, 0.81)"></path><path d="M74.75 172.5 a5.75 5.75 0 1 0 11.5 0 a5.75 5.75 0 1 0 -11.5 0zM5.75 172.5 a5.75 5.75 0 1 0 11.5 0 a5.75 5.75 0 1 0 -11.5 0z" fill="rgba(31, 49, 79, 0.81)"></path><path d="M1138.5 701.5L1092.5 701.5" stroke-width="3.83" stroke="rgba(31, 49, 79, 0.81)"></path><path d="M1132.75 701.5 a5.75 5.75 0 1 0 11.5 0 a5.75 5.75 0 1 0 -11.5 0zM1086.75 701.5 a5.75 5.75 0 1 0 11.5 0 a5.75 5.75 0 1 0 -11.5 0z" fill="rgba(31, 49, 79, 0.81)"></path><path d="M103.5 977.5L57.5 977.5" stroke-width="3.83" stroke="rgba(31, 49, 79, 0.81)"></path><path d="M97.75 977.5 a5.75 5.75 0 1 0 11.5 0 a5.75 5.75 0 1 0 -11.5 0zM51.75 977.5 a5.75 5.75 0 1 0 11.5 0 a5.75 5.75 0 1 0 -11.5 0z" fill="rgba(31, 49, 79, 0.81)"></path><path d="M356.5 448.5L333.5 425.5L310.5 425.5" stroke-width="3.83" stroke="rgba(31, 49, 79, 0.81)"></path><path d="M350.75 448.5 a5.75 5.75 0 1 0 11.5 0 a5.75 5.75 0 1 0 -11.5 0zM304.75 425.5 a5.75 5.75 0 1 0 11.5 0 a5.75 5.75 0 1 0 -11.5 0z" fill="rgba(31, 49, 79, 0.81)"></path><path d="M402.5 931.5L425.5 954.5L448.5 954.5" stroke-width="3.83" stroke="rgba(31, 49, 79, 0.81)"></path><path d="M396.75 931.5 a5.75 5.75 0 1 0 11.5 0 a5.75 5.75 0 1 0 -11.5 0zM442.75 954.5 a5.75 5.75 0 1 0 11.5 0 a5.75 5.75 0 1 0 -11.5 0z" fill="rgba(31, 49, 79, 0.81)"></path><path d="M126.5 1000.5L241.5 1000.5" stroke-width="3.83" stroke="rgba(31, 49, 79, 0.81)"></path><path d="M120.75 1000.5 a5.75 5.75 0 1 0 11.5 0 a5.75 5.75 0 1 0 -11.5 0zM235.75 1000.5 a5.75 5.75 0 1 0 11.5 0 a5.75 5.75 0 1 0 -11.5 0z" fill="rgba(31, 49, 79, 0.81)"></path><path d="M402.5 195.5L356.5 195.5" stroke-width="3.83" stroke="rgba(31, 49, 79, 0.81)"></path><path d="M396.75 195.5 a5.75 5.75 0 1 0 11.5 0 a5.75 5.75 0 1 0 -11.5 0zM350.75 195.5 a5.75 5.75 0 1 0 11.5 0 a5.75 5.75 0 1 0 -11.5 0z" fill="rgba(31, 49, 79, 0.81)"></path><path d="M793.5 1000.5L747.5 1000.5" stroke-width="3.83" stroke="rgba(31, 49, 79, 0.81)"></path><path d="M787.75 1000.5 a5.75 5.75 0 1 0 11.5 0 a5.75 5.75 0 1 0 -11.5 0zM741.75 1000.5 a5.75 5.75 0 1 0 11.5 0 a5.75 5.75 0 1 0 -11.5 0z" fill="rgba(31, 49, 79, 0.81)"></path><path d="M839.5 609.5L839.5 655.5" stroke-width="3.83" stroke="rgba(31, 49, 79, 0.81)"></path><path d="M833.75 609.5 a5.75 5.75 0 1 0 11.5 0 a5.75 5.75 0 1 0 -11.5 0zM833.75 655.5 a5.75 5.75 0 1 0 11.5 0 a5.75 5.75 0 1 0 -11.5 0z" fill="rgba(31, 49, 79, 0.81)"></path><path d="M494.5 655.5L494.5 678.5L517.5 701.5L540.5 701.5" stroke-width="3.83" stroke="rgba(31, 49, 79, 0.81)"></path><path d="M488.75 655.5 a5.75 5.75 0 1 0 11.5 0 a5.75 5.75 0 1 0 -11.5 0zM534.75 701.5 a5.75 5.75 0 1 0 11.5 0 a5.75 5.75 0 1 0 -11.5 0z" fill="rgba(31, 49, 79, 0.81)"></path><path d="M724.5 402.5L678.5 402.5" stroke-width="3.83" stroke="rgba(31, 49, 79, 0.81)"></path><path d="M718.75 402.5 a5.75 5.75 0 1 0 11.5 0 a5.75 5.75 0 1 0 -11.5 0zM672.75 402.5 a5.75 5.75 0 1 0 11.5 0 a5.75 5.75 0 1 0 -11.5 0z" fill="rgba(31, 49, 79, 0.81)"></path><path d="M862.5 149.5L839.5 126.5L839.5 103.5" stroke-width="3.83" stroke="rgba(31, 49, 79, 0.81)"></path><path d="M856.75 149.5 a5.75 5.75 0 1 0 11.5 0 a5.75 5.75 0 1 0 -11.5 0zM833.75 103.5 a5.75 5.75 0 1 0 11.5 0 a5.75 5.75 0 1 0 -11.5 0z" fill="rgba(31, 49, 79, 0.81)"></path><path d="M954.5 816.5L1000.5 816.5" stroke-width="3.83" stroke="rgba(31, 49, 79, 0.81)"></path><path d="M948.75 816.5 a5.75 5.75 0 1 0 11.5 0 a5.75 5.75 0 1 0 -11.5 0zM994.75 816.5 a5.75 5.75 0 1 0 11.5 0 a5.75 5.75 0 1 0 -11.5 0z" fill="rgba(31, 49, 79, 0.81)"></path></g></g><defs><mask id="SvgjsMask1048"><rect width="1150" height="1000" fill="#ffffff"></rect></mask><mask id="SvgjsMask1049"><rect width="1150" height="1000" fill="white"></rect><path d="M1066.62 264.5 a2.88 2.88 0 1 0 5.76 0 a2.88 2.88 0 1 0 -5.76 0zM882.62 678.5 a2.88 2.88 0 1 0 5.76 0 a2.88 2.88 0 1 0 -5.76 0z" fill="black"></path><path d="M583.62 11.5 a2.88 2.88 0 1 0 5.76 0 a2.88 2.88 0 1 0 -5.76 0zM146.62 80.5 a2.88 2.88 0 1 0 5.76 0 a2.88 2.88 0 1 0 -5.76 0z" fill="black"></path><path d="M353.62 103.5 a2.88 2.88 0 1 0 5.76 0 a2.88 2.88 0 1 0 -5.76 0zM790.62 540.5 a2.88 2.88 0 1 0 5.76 0 a2.88 2.88 0 1 0 -5.76 0z" fill="black"></path><path d="M698.62 885.5 a2.88 2.88 0 1 0 5.76 0 a2.88 2.88 0 1 0 -5.76 0zM1135.62 448.5 a2.88 2.88 0 1 0 5.76 0 a2.88 2.88 0 1 0 -5.76 0z" fill="black"></path><path d="M836.62 908.5 a2.88 2.88 0 1 0 5.76 0 a2.88 2.88 0 1 0 -5.76 0zM836.62 1000.5 a2.88 2.88 0 1 0 5.76 0 a2.88 2.88 0 1 0 -5.76 0z" fill="black"></path><path d="M537.62 816.5 a2.88 2.88 0 1 0 5.76 0 a2.88 2.88 0 1 0 -5.76 0zM100.62 816.5 a2.88 2.88 0 1 0 5.76 0 a2.88 2.88 0 1 0 -5.76 0z" fill="black"></path><path d="M974.62 195.5 a2.88 2.88 0 1 0 5.76 0 a2.88 2.88 0 1 0 -5.76 0zM1135.62 80.5 a2.88 2.88 0 1 0 5.76 0 a2.88 2.88 0 1 0 -5.76 0z" fill="black"></path><path d="M790.62 333.5 a2.88 2.88 0 1 0 5.76 0 a2.88 2.88 0 1 0 -5.76 0zM744.62 770.5 a2.88 2.88 0 1 0 5.76 0 a2.88 2.88 0 1 0 -5.76 0z" fill="black"></path><path d="M560.62 862.5 a2.88 2.88 0 1 0 5.76 0 a2.88 2.88 0 1 0 -5.76 0zM560.62 1000.5 a2.88 2.88 0 1 0 5.76 0 a2.88 2.88 0 1 0 -5.76 0z" fill="black"></path><path d="M836.62 839.5 a2.88 2.88 0 1 0 5.76 0 a2.88 2.88 0 1 0 -5.76 0zM583.62 1000.5 a2.88 2.88 0 1 0 5.76 0 a2.88 2.88 0 1 0 -5.76 0z" fill="black"></path><path d="M445.62 747.5 a2.88 2.88 0 1 0 5.76 0 a2.88 2.88 0 1 0 -5.76 0zM31.62 540.5 a2.88 2.88 0 1 0 5.76 0 a2.88 2.88 0 1 0 -5.76 0z" fill="black"></path><path d="M491.62 1000.5 a2.88 2.88 0 1 0 5.76 0 a2.88 2.88 0 1 0 -5.76 0zM813.62 563.5 a2.88 2.88 0 1 0 5.76 0 a2.88 2.88 0 1 0 -5.76 0z" fill="black"></path><path d="M54.62 816.5 a2.88 2.88 0 1 0 5.76 0 a2.88 2.88 0 1 0 -5.76 0zM8.62 563.5 a2.88 2.88 0 1 0 5.76 0 a2.88 2.88 0 1 0 -5.76 0z" fill="black"></path><path d="M652.62 149.5 a2.88 2.88 0 1 0 5.76 0 a2.88 2.88 0 1 0 -5.76 0zM652.62 11.5 a2.88 2.88 0 1 0 5.76 0 a2.88 2.88 0 1 0 -5.76 0z" fill="black"></path><path d="M928.62 540.5 a2.88 2.88 0 1 0 5.76 0 a2.88 2.88 0 1 0 -5.76 0zM537.62 264.5 a2.88 2.88 0 1 0 5.76 0 a2.88 2.88 0 1 0 -5.76 0z" fill="black"></path><path d="M813.62 540.5 a2.88 2.88 0 1 0 5.76 0 a2.88 2.88 0 1 0 -5.76 0zM859.62 632.5 a2.88 2.88 0 1 0 5.76 0 a2.88 2.88 0 1 0 -5.76 0z" fill="black"></path><path d="M1112.62 425.5 a2.88 2.88 0 1 0 5.76 0 a2.88 2.88 0 1 0 -5.76 0zM675.62 195.5 a2.88 2.88 0 1 0 5.76 0 a2.88 2.88 0 1 0 -5.76 0z" fill="black"></path><path d="M629.62 195.5 a2.88 2.88 0 1 0 5.76 0 a2.88 2.88 0 1 0 -5.76 0zM629.62 264.5 a2.88 2.88 0 1 0 5.76 0 a2.88 2.88 0 1 0 -5.76 0z" fill="black"></path><path d="M399.62 701.5 a2.88 2.88 0 1 0 5.76 0 a2.88 2.88 0 1 0 -5.76 0zM422.62 471.5 a2.88 2.88 0 1 0 5.76 0 a2.88 2.88 0 1 0 -5.76 0z" fill="black"></path><path d="M399.62 287.5 a2.88 2.88 0 1 0 5.76 0 a2.88 2.88 0 1 0 -5.76 0zM8.62 310.5 a2.88 2.88 0 1 0 5.76 0 a2.88 2.88 0 1 0 -5.76 0z" fill="black"></path><path d="M123.62 954.5 a2.88 2.88 0 1 0 5.76 0 a2.88 2.88 0 1 0 -5.76 0zM31.62 1000.5 a2.88 2.88 0 1 0 5.76 0 a2.88 2.88 0 1 0 -5.76 0z" fill="black"></path><path d="M192.62 678.5 a2.88 2.88 0 1 0 5.76 0 a2.88 2.88 0 1 0 -5.76 0zM169.62 632.5 a2.88 2.88 0 1 0 5.76 0 a2.88 2.88 0 1 0 -5.76 0z" fill="black"></path><path d="M560.62 356.5 a2.88 2.88 0 1 0 5.76 0 a2.88 2.88 0 1 0 -5.76 0zM146.62 103.5 a2.88 2.88 0 1 0 5.76 0 a2.88 2.88 0 1 0 -5.76 0z" fill="black"></path><path d="M1066.62 448.5 a2.88 2.88 0 1 0 5.76 0 a2.88 2.88 0 1 0 -5.76 0zM974.62 563.5 a2.88 2.88 0 1 0 5.76 0 a2.88 2.88 0 1 0 -5.76 0z" fill="black"></path><path d="M560.62 724.5 a2.88 2.88 0 1 0 5.76 0 a2.88 2.88 0 1 0 -5.76 0zM468.62 287.5 a2.88 2.88 0 1 0 5.76 0 a2.88 2.88 0 1 0 -5.76 0z" fill="black"></path><path d="M882.62 954.5 a2.88 2.88 0 1 0 5.76 0 a2.88 2.88 0 1 0 -5.76 0zM1135.62 747.5 a2.88 2.88 0 1 0 5.76 0 a2.88 2.88 0 1 0 -5.76 0z" fill="black"></path><path d="M77.62 425.5 a2.88 2.88 0 1 0 5.76 0 a2.88 2.88 0 1 0 -5.76 0zM514.62 425.5 a2.88 2.88 0 1 0 5.76 0 a2.88 2.88 0 1 0 -5.76 0z" fill="black"></path><path d="M675.62 908.5 a2.88 2.88 0 1 0 5.76 0 a2.88 2.88 0 1 0 -5.76 0zM859.62 471.5 a2.88 2.88 0 1 0 5.76 0 a2.88 2.88 0 1 0 -5.76 0z" fill="black"></path><path d="M330.62 563.5 a2.88 2.88 0 1 0 5.76 0 a2.88 2.88 0 1 0 -5.76 0zM330.62 747.5 a2.88 2.88 0 1 0 5.76 0 a2.88 2.88 0 1 0 -5.76 0z" fill="black"></path><path d="M997.62 793.5 a2.88 2.88 0 1 0 5.76 0 a2.88 2.88 0 1 0 -5.76 0zM790.62 816.5 a2.88 2.88 0 1 0 5.76 0 a2.88 2.88 0 1 0 -5.76 0z" fill="black"></path><path d="M77.62 724.5 a2.88 2.88 0 1 0 5.76 0 a2.88 2.88 0 1 0 -5.76 0zM8.62 586.5 a2.88 2.88 0 1 0 5.76 0 a2.88 2.88 0 1 0 -5.76 0z" fill="black"></path><path d="M997.62 494.5 a2.88 2.88 0 1 0 5.76 0 a2.88 2.88 0 1 0 -5.76 0zM997.62 448.5 a2.88 2.88 0 1 0 5.76 0 a2.88 2.88 0 1 0 -5.76 0z" fill="black"></path><path d="M560.62 517.5 a2.88 2.88 0 1 0 5.76 0 a2.88 2.88 0 1 0 -5.76 0zM146.62 379.5 a2.88 2.88 0 1 0 5.76 0 a2.88 2.88 0 1 0 -5.76 0z" fill="black"></path><path d="M652.62 448.5 a2.88 2.88 0 1 0 5.76 0 a2.88 2.88 0 1 0 -5.76 0zM583.62 356.5 a2.88 2.88 0 1 0 5.76 0 a2.88 2.88 0 1 0 -5.76 0z" fill="black"></path><path d="M1089.62 862.5 a2.88 2.88 0 1 0 5.76 0 a2.88 2.88 0 1 0 -5.76 0zM1089.62 1000.5 a2.88 2.88 0 1 0 5.76 0 a2.88 2.88 0 1 0 -5.76 0z" fill="black"></path><path d="M928.62 747.5 a2.88 2.88 0 1 0 5.76 0 a2.88 2.88 0 1 0 -5.76 0zM1135.62 471.5 a2.88 2.88 0 1 0 5.76 0 a2.88 2.88 0 1 0 -5.76 0z" fill="black"></path><path d="M951.62 931.5 a2.88 2.88 0 1 0 5.76 0 a2.88 2.88 0 1 0 -5.76 0zM1066.62 931.5 a2.88 2.88 0 1 0 5.76 0 a2.88 2.88 0 1 0 -5.76 0z" fill="black"></path><path d="M8.62 862.5 a2.88 2.88 0 1 0 5.76 0 a2.88 2.88 0 1 0 -5.76 0zM8.62 609.5 a2.88 2.88 0 1 0 5.76 0 a2.88 2.88 0 1 0 -5.76 0z" fill="black"></path><path d="M1135.62 172.5 a2.88 2.88 0 1 0 5.76 0 a2.88 2.88 0 1 0 -5.76 0zM721.62 218.5 a2.88 2.88 0 1 0 5.76 0 a2.88 2.88 0 1 0 -5.76 0z" fill="black"></path><path d="M77.62 11.5 a2.88 2.88 0 1 0 5.76 0 a2.88 2.88 0 1 0 -5.76 0zM8.62 11.5 a2.88 2.88 0 1 0 5.76 0 a2.88 2.88 0 1 0 -5.76 0z" fill="black"></path><path d="M698.62 954.5 a2.88 2.88 0 1 0 5.76 0 a2.88 2.88 0 1 0 -5.76 0zM698.62 931.5 a2.88 2.88 0 1 0 5.76 0 a2.88 2.88 0 1 0 -5.76 0z" fill="black"></path><path d="M698.62 563.5 a2.88 2.88 0 1 0 5.76 0 a2.88 2.88 0 1 0 -5.76 0zM744.62 517.5 a2.88 2.88 0 1 0 5.76 0 a2.88 2.88 0 1 0 -5.76 0z" fill="black"></path><path d="M698.62 310.5 a2.88 2.88 0 1 0 5.76 0 a2.88 2.88 0 1 0 -5.76 0zM583.62 310.5 a2.88 2.88 0 1 0 5.76 0 a2.88 2.88 0 1 0 -5.76 0z" fill="black"></path><path d="M238.62 931.5 a2.88 2.88 0 1 0 5.76 0 a2.88 2.88 0 1 0 -5.76 0zM8.62 931.5 a2.88 2.88 0 1 0 5.76 0 a2.88 2.88 0 1 0 -5.76 0z" fill="black"></path><path d="M836.62 471.5 a2.88 2.88 0 1 0 5.76 0 a2.88 2.88 0 1 0 -5.76 0zM836.62 448.5 a2.88 2.88 0 1 0 5.76 0 a2.88 2.88 0 1 0 -5.76 0z" fill="black"></path><path d="M123.62 126.5 a2.88 2.88 0 1 0 5.76 0 a2.88 2.88 0 1 0 -5.76 0zM8.62 34.5 a2.88 2.88 0 1 0 5.76 0 a2.88 2.88 0 1 0 -5.76 0z" fill="black"></path><path d="M652.62 379.5 a2.88 2.88 0 1 0 5.76 0 a2.88 2.88 0 1 0 -5.76 0zM767.62 356.5 a2.88 2.88 0 1 0 5.76 0 a2.88 2.88 0 1 0 -5.76 0z" fill="black"></path><path d="M1066.62 80.5 a2.88 2.88 0 1 0 5.76 0 a2.88 2.88 0 1 0 -5.76 0zM1112.62 11.5 a2.88 2.88 0 1 0 5.76 0 a2.88 2.88 0 1 0 -5.76 0z" fill="black"></path><path d="M997.62 149.5 a2.88 2.88 0 1 0 5.76 0 a2.88 2.88 0 1 0 -5.76 0zM997.62 11.5 a2.88 2.88 0 1 0 5.76 0 a2.88 2.88 0 1 0 -5.76 0z" fill="black"></path><path d="M353.62 34.5 a2.88 2.88 0 1 0 5.76 0 a2.88 2.88 0 1 0 -5.76 0zM330.62 80.5 a2.88 2.88 0 1 0 5.76 0 a2.88 2.88 0 1 0 -5.76 0z" fill="black"></path><path d="M721.62 103.5 a2.88 2.88 0 1 0 5.76 0 a2.88 2.88 0 1 0 -5.76 0zM1112.62 149.5 a2.88 2.88 0 1 0 5.76 0 a2.88 2.88 0 1 0 -5.76 0z" fill="black"></path><path d="M997.62 1000.5 a2.88 2.88 0 1 0 5.76 0 a2.88 2.88 0 1 0 -5.76 0zM1066.62 1000.5 a2.88 2.88 0 1 0 5.76 0 a2.88 2.88 0 1 0 -5.76 0z" fill="black"></path><path d="M537.62 57.5 a2.88 2.88 0 1 0 5.76 0 a2.88 2.88 0 1 0 -5.76 0zM629.62 11.5 a2.88 2.88 0 1 0 5.76 0 a2.88 2.88 0 1 0 -5.76 0z" fill="black"></path><path d="M100.62 287.5 a2.88 2.88 0 1 0 5.76 0 a2.88 2.88 0 1 0 -5.76 0zM31.62 287.5 a2.88 2.88 0 1 0 5.76 0 a2.88 2.88 0 1 0 -5.76 0z" fill="black"></path><path d="M629.62 885.5 a2.88 2.88 0 1 0 5.76 0 a2.88 2.88 0 1 0 -5.76 0zM583.62 977.5 a2.88 2.88 0 1 0 5.76 0 a2.88 2.88 0 1 0 -5.76 0z" fill="black"></path><path d="M1020.62 333.5 a2.88 2.88 0 1 0 5.76 0 a2.88 2.88 0 1 0 -5.76 0zM790.62 264.5 a2.88 2.88 0 1 0 5.76 0 a2.88 2.88 0 1 0 -5.76 0z" fill="black"></path><path d="M859.62 747.5 a2.88 2.88 0 1 0 5.76 0 a2.88 2.88 0 1 0 -5.76 0zM905.62 701.5 a2.88 2.88 0 1 0 5.76 0 a2.88 2.88 0 1 0 -5.76 0z" fill="black"></path><path d="M1089.62 724.5 a2.88 2.88 0 1 0 5.76 0 a2.88 2.88 0 1 0 -5.76 0zM1020.62 793.5 a2.88 2.88 0 1 0 5.76 0 a2.88 2.88 0 1 0 -5.76 0z" fill="black"></path><path d="M192.62 195.5 a2.88 2.88 0 1 0 5.76 0 a2.88 2.88 0 1 0 -5.76 0zM468.62 264.5 a2.88 2.88 0 1 0 5.76 0 a2.88 2.88 0 1 0 -5.76 0z" fill="black"></path><path d="M8.62 103.5 a2.88 2.88 0 1 0 5.76 0 a2.88 2.88 0 1 0 -5.76 0zM8.62 57.5 a2.88 2.88 0 1 0 5.76 0 a2.88 2.88 0 1 0 -5.76 0z" fill="black"></path><path d="M790.62 678.5 a2.88 2.88 0 1 0 5.76 0 a2.88 2.88 0 1 0 -5.76 0zM882.62 540.5 a2.88 2.88 0 1 0 5.76 0 a2.88 2.88 0 1 0 -5.76 0z" fill="black"></path><path d="M1066.62 793.5 a2.88 2.88 0 1 0 5.76 0 a2.88 2.88 0 1 0 -5.76 0zM1135.62 1000.5 a2.88 2.88 0 1 0 5.76 0 a2.88 2.88 0 1 0 -5.76 0z" fill="black"></path><path d="M146.62 517.5 a2.88 2.88 0 1 0 5.76 0 a2.88 2.88 0 1 0 -5.76 0zM353.62 310.5 a2.88 2.88 0 1 0 5.76 0 a2.88 2.88 0 1 0 -5.76 0z" fill="black"></path><path d="M606.62 701.5 a2.88 2.88 0 1 0 5.76 0 a2.88 2.88 0 1 0 -5.76 0zM606.62 425.5 a2.88 2.88 0 1 0 5.76 0 a2.88 2.88 0 1 0 -5.76 0z" fill="black"></path><path d="M376.62 241.5 a2.88 2.88 0 1 0 5.76 0 a2.88 2.88 0 1 0 -5.76 0zM560.62 402.5 a2.88 2.88 0 1 0 5.76 0 a2.88 2.88 0 1 0 -5.76 0z" fill="black"></path><path d="M284.62 793.5 a2.88 2.88 0 1 0 5.76 0 a2.88 2.88 0 1 0 -5.76 0zM215.62 678.5 a2.88 2.88 0 1 0 5.76 0 a2.88 2.88 0 1 0 -5.76 0z" fill="black"></path><path d="M951.62 356.5 a2.88 2.88 0 1 0 5.76 0 a2.88 2.88 0 1 0 -5.76 0zM951.62 287.5 a2.88 2.88 0 1 0 5.76 0 a2.88 2.88 0 1 0 -5.76 0z" fill="black"></path><path d="M307.62 655.5 a2.88 2.88 0 1 0 5.76 0 a2.88 2.88 0 1 0 -5.76 0zM54.62 310.5 a2.88 2.88 0 1 0 5.76 0 a2.88 2.88 0 1 0 -5.76 0z" fill="black"></path><path d="M514.62 816.5 a2.88 2.88 0 1 0 5.76 0 a2.88 2.88 0 1 0 -5.76 0zM215.62 954.5 a2.88 2.88 0 1 0 5.76 0 a2.88 2.88 0 1 0 -5.76 0z" fill="black"></path><path d="M698.62 103.5 a2.88 2.88 0 1 0 5.76 0 a2.88 2.88 0 1 0 -5.76 0zM813.62 218.5 a2.88 2.88 0 1 0 5.76 0 a2.88 2.88 0 1 0 -5.76 0z" fill="black"></path><path d="M698.62 586.5 a2.88 2.88 0 1 0 5.76 0 a2.88 2.88 0 1 0 -5.76 0zM629.62 586.5 a2.88 2.88 0 1 0 5.76 0 a2.88 2.88 0 1 0 -5.76 0z" fill="black"></path><path d="M997.62 977.5 a2.88 2.88 0 1 0 5.76 0 a2.88 2.88 0 1 0 -5.76 0zM1066.62 977.5 a2.88 2.88 0 1 0 5.76 0 a2.88 2.88 0 1 0 -5.76 0z" fill="black"></path><path d="M169.62 425.5 a2.88 2.88 0 1 0 5.76 0 a2.88 2.88 0 1 0 -5.76 0zM330.62 310.5 a2.88 2.88 0 1 0 5.76 0 a2.88 2.88 0 1 0 -5.76 0z" fill="black"></path><path d="M1112.62 103.5 a2.88 2.88 0 1 0 5.76 0 a2.88 2.88 0 1 0 -5.76 0zM997.62 195.5 a2.88 2.88 0 1 0 5.76 0 a2.88 2.88 0 1 0 -5.76 0z" fill="black"></path><path d="M1043.62 885.5 a2.88 2.88 0 1 0 5.76 0 a2.88 2.88 0 1 0 -5.76 0zM1089.62 839.5 a2.88 2.88 0 1 0 5.76 0 a2.88 2.88 0 1 0 -5.76 0z" fill="black"></path><path d="M215.62 57.5 a2.88 2.88 0 1 0 5.76 0 a2.88 2.88 0 1 0 -5.76 0zM8.62 218.5 a2.88 2.88 0 1 0 5.76 0 a2.88 2.88 0 1 0 -5.76 0z" fill="black"></path><path d="M399.62 655.5 a2.88 2.88 0 1 0 5.76 0 a2.88 2.88 0 1 0 -5.76 0zM169.62 517.5 a2.88 2.88 0 1 0 5.76 0 a2.88 2.88 0 1 0 -5.76 0z" fill="black"></path><path d="M468.62 724.5 a2.88 2.88 0 1 0 5.76 0 a2.88 2.88 0 1 0 -5.76 0zM560.62 540.5 a2.88 2.88 0 1 0 5.76 0 a2.88 2.88 0 1 0 -5.76 0z" fill="black"></path><path d="M537.62 632.5 a2.88 2.88 0 1 0 5.76 0 a2.88 2.88 0 1 0 -5.76 0zM537.62 563.5 a2.88 2.88 0 1 0 5.76 0 a2.88 2.88 0 1 0 -5.76 0z" fill="black"></path><path d="M307.62 126.5 a2.88 2.88 0 1 0 5.76 0 a2.88 2.88 0 1 0 -5.76 0zM77.62 218.5 a2.88 2.88 0 1 0 5.76 0 a2.88 2.88 0 1 0 -5.76 0z" fill="black"></path><path d="M537.62 747.5 a2.88 2.88 0 1 0 5.76 0 a2.88 2.88 0 1 0 -5.76 0zM514.62 586.5 a2.88 2.88 0 1 0 5.76 0 a2.88 2.88 0 1 0 -5.76 0z" fill="black"></path><path d="M905.62 908.5 a2.88 2.88 0 1 0 5.76 0 a2.88 2.88 0 1 0 -5.76 0zM859.62 816.5 a2.88 2.88 0 1 0 5.76 0 a2.88 2.88 0 1 0 -5.76 0z" fill="black"></path><path d="M31.62 885.5 a2.88 2.88 0 1 0 5.76 0 a2.88 2.88 0 1 0 -5.76 0zM77.62 816.5 a2.88 2.88 0 1 0 5.76 0 a2.88 2.88 0 1 0 -5.76 0z" fill="black"></path><path d="M974.62 172.5 a2.88 2.88 0 1 0 5.76 0 a2.88 2.88 0 1 0 -5.76 0zM790.62 11.5 a2.88 2.88 0 1 0 5.76 0 a2.88 2.88 0 1 0 -5.76 0z" fill="black"></path><path d="M905.62 103.5 a2.88 2.88 0 1 0 5.76 0 a2.88 2.88 0 1 0 -5.76 0zM974.62 103.5 a2.88 2.88 0 1 0 5.76 0 a2.88 2.88 0 1 0 -5.76 0z" fill="black"></path><path d="M997.62 655.5 a2.88 2.88 0 1 0 5.76 0 a2.88 2.88 0 1 0 -5.76 0zM1066.62 724.5 a2.88 2.88 0 1 0 5.76 0 a2.88 2.88 0 1 0 -5.76 0z" fill="black"></path><path d="M445.62 908.5 a2.88 2.88 0 1 0 5.76 0 a2.88 2.88 0 1 0 -5.76 0zM261.62 862.5 a2.88 2.88 0 1 0 5.76 0 a2.88 2.88 0 1 0 -5.76 0z" fill="black"></path><path d="M376.62 632.5 a2.88 2.88 0 1 0 5.76 0 a2.88 2.88 0 1 0 -5.76 0zM353.62 724.5 a2.88 2.88 0 1 0 5.76 0 a2.88 2.88 0 1 0 -5.76 0z" fill="black"></path><path d="M859.62 57.5 a2.88 2.88 0 1 0 5.76 0 a2.88 2.88 0 1 0 -5.76 0zM974.62 57.5 a2.88 2.88 0 1 0 5.76 0 a2.88 2.88 0 1 0 -5.76 0z" fill="black"></path><path d="M376.62 103.5 a2.88 2.88 0 1 0 5.76 0 a2.88 2.88 0 1 0 -5.76 0zM376.62 34.5 a2.88 2.88 0 1 0 5.76 0 a2.88 2.88 0 1 0 -5.76 0z" fill="black"></path><path d="M698.62 356.5 a2.88 2.88 0 1 0 5.76 0 a2.88 2.88 0 1 0 -5.76 0zM744.62 356.5 a2.88 2.88 0 1 0 5.76 0 a2.88 2.88 0 1 0 -5.76 0z" fill="black"></path><path d="M905.62 287.5 a2.88 2.88 0 1 0 5.76 0 a2.88 2.88 0 1 0 -5.76 0zM813.62 287.5 a2.88 2.88 0 1 0 5.76 0 a2.88 2.88 0 1 0 -5.76 0z" fill="black"></path><path d="M261.62 195.5 a2.88 2.88 0 1 0 5.76 0 a2.88 2.88 0 1 0 -5.76 0zM100.62 218.5 a2.88 2.88 0 1 0 5.76 0 a2.88 2.88 0 1 0 -5.76 0z" fill="black"></path><path d="M468.62 839.5 a2.88 2.88 0 1 0 5.76 0 a2.88 2.88 0 1 0 -5.76 0zM284.62 954.5 a2.88 2.88 0 1 0 5.76 0 a2.88 2.88 0 1 0 -5.76 0z" fill="black"></path><path d="M307.62 310.5 a2.88 2.88 0 1 0 5.76 0 a2.88 2.88 0 1 0 -5.76 0zM238.62 356.5 a2.88 2.88 0 1 0 5.76 0 a2.88 2.88 0 1 0 -5.76 0z" fill="black"></path><path d="M376.62 494.5 a2.88 2.88 0 1 0 5.76 0 a2.88 2.88 0 1 0 -5.76 0zM353.62 701.5 a2.88 2.88 0 1 0 5.76 0 a2.88 2.88 0 1 0 -5.76 0z" fill="black"></path><path d="M1066.62 908.5 a2.88 2.88 0 1 0 5.76 0 a2.88 2.88 0 1 0 -5.76 0zM951.62 908.5 a2.88 2.88 0 1 0 5.76 0 a2.88 2.88 0 1 0 -5.76 0z" fill="black"></path><path d="M882.62 977.5 a2.88 2.88 0 1 0 5.76 0 a2.88 2.88 0 1 0 -5.76 0zM928.62 931.5 a2.88 2.88 0 1 0 5.76 0 a2.88 2.88 0 1 0 -5.76 0z" fill="black"></path><path d="M1089.62 356.5 a2.88 2.88 0 1 0 5.76 0 a2.88 2.88 0 1 0 -5.76 0zM974.62 264.5 a2.88 2.88 0 1 0 5.76 0 a2.88 2.88 0 1 0 -5.76 0z" fill="black"></path><path d="M123.62 655.5 a2.88 2.88 0 1 0 5.76 0 a2.88 2.88 0 1 0 -5.76 0zM54.62 586.5 a2.88 2.88 0 1 0 5.76 0 a2.88 2.88 0 1 0 -5.76 0z" fill="black"></path><path d="M215.62 494.5 a2.88 2.88 0 1 0 5.76 0 a2.88 2.88 0 1 0 -5.76 0zM238.62 471.5 a2.88 2.88 0 1 0 5.76 0 a2.88 2.88 0 1 0 -5.76 0z" fill="black"></path><path d="M123.62 333.5 a2.88 2.88 0 1 0 5.76 0 a2.88 2.88 0 1 0 -5.76 0zM123.62 264.5 a2.88 2.88 0 1 0 5.76 0 a2.88 2.88 0 1 0 -5.76 0z" fill="black"></path><path d="M54.62 356.5 a2.88 2.88 0 1 0 5.76 0 a2.88 2.88 0 1 0 -5.76 0zM192.62 448.5 a2.88 2.88 0 1 0 5.76 0 a2.88 2.88 0 1 0 -5.76 0z" fill="black"></path><path d="M813.62 80.5 a2.88 2.88 0 1 0 5.76 0 a2.88 2.88 0 1 0 -5.76 0zM974.62 11.5 a2.88 2.88 0 1 0 5.76 0 a2.88 2.88 0 1 0 -5.76 0z" fill="black"></path><path d="M491.62 471.5 a2.88 2.88 0 1 0 5.76 0 a2.88 2.88 0 1 0 -5.76 0zM353.62 333.5 a2.88 2.88 0 1 0 5.76 0 a2.88 2.88 0 1 0 -5.76 0z" fill="black"></path><path d="M675.62 655.5 a2.88 2.88 0 1 0 5.76 0 a2.88 2.88 0 1 0 -5.76 0zM491.62 724.5 a2.88 2.88 0 1 0 5.76 0 a2.88 2.88 0 1 0 -5.76 0z" fill="black"></path><path d="M169.62 770.5 a2.88 2.88 0 1 0 5.76 0 a2.88 2.88 0 1 0 -5.76 0zM353.62 816.5 a2.88 2.88 0 1 0 5.76 0 a2.88 2.88 0 1 0 -5.76 0z" fill="black"></path><path d="M1089.62 333.5 a2.88 2.88 0 1 0 5.76 0 a2.88 2.88 0 1 0 -5.76 0zM1020.62 264.5 a2.88 2.88 0 1 0 5.76 0 a2.88 2.88 0 1 0 -5.76 0z" fill="black"></path><path d="M606.62 195.5 a2.88 2.88 0 1 0 5.76 0 a2.88 2.88 0 1 0 -5.76 0zM629.62 34.5 a2.88 2.88 0 1 0 5.76 0 a2.88 2.88 0 1 0 -5.76 0z" fill="black"></path><path d="M537.62 103.5 a2.88 2.88 0 1 0 5.76 0 a2.88 2.88 0 1 0 -5.76 0zM606.62 57.5 a2.88 2.88 0 1 0 5.76 0 a2.88 2.88 0 1 0 -5.76 0z" fill="black"></path><path d="M261.62 103.5 a2.88 2.88 0 1 0 5.76 0 a2.88 2.88 0 1 0 -5.76 0zM146.62 218.5 a2.88 2.88 0 1 0 5.76 0 a2.88 2.88 0 1 0 -5.76 0z" fill="black"></path><path d="M537.62 448.5 a2.88 2.88 0 1 0 5.76 0 a2.88 2.88 0 1 0 -5.76 0zM560.62 494.5 a2.88 2.88 0 1 0 5.76 0 a2.88 2.88 0 1 0 -5.76 0z" fill="black"></path><path d="M836.62 333.5 a2.88 2.88 0 1 0 5.76 0 a2.88 2.88 0 1 0 -5.76 0zM928.62 310.5 a2.88 2.88 0 1 0 5.76 0 a2.88 2.88 0 1 0 -5.76 0z" fill="black"></path><path d="M422.62 931.5 a2.88 2.88 0 1 0 5.76 0 a2.88 2.88 0 1 0 -5.76 0zM491.62 931.5 a2.88 2.88 0 1 0 5.76 0 a2.88 2.88 0 1 0 -5.76 0z" fill="black"></path><path d="M192.62 172.5 a2.88 2.88 0 1 0 5.76 0 a2.88 2.88 0 1 0 -5.76 0zM238.62 195.5 a2.88 2.88 0 1 0 5.76 0 a2.88 2.88 0 1 0 -5.76 0z" fill="black"></path><path d="M675.62 563.5 a2.88 2.88 0 1 0 5.76 0 a2.88 2.88 0 1 0 -5.76 0zM675.62 448.5 a2.88 2.88 0 1 0 5.76 0 a2.88 2.88 0 1 0 -5.76 0z" fill="black"></path><path d="M974.62 724.5 a2.88 2.88 0 1 0 5.76 0 a2.88 2.88 0 1 0 -5.76 0zM974.62 655.5 a2.88 2.88 0 1 0 5.76 0 a2.88 2.88 0 1 0 -5.76 0z" fill="black"></path><path d="M721.62 839.5 a2.88 2.88 0 1 0 5.76 0 a2.88 2.88 0 1 0 -5.76 0zM859.62 678.5 a2.88 2.88 0 1 0 5.76 0 a2.88 2.88 0 1 0 -5.76 0z" fill="black"></path><path d="M1020.62 954.5 a2.88 2.88 0 1 0 5.76 0 a2.88 2.88 0 1 0 -5.76 0zM1066.62 954.5 a2.88 2.88 0 1 0 5.76 0 a2.88 2.88 0 1 0 -5.76 0z" fill="black"></path><path d="M77.62 908.5 a2.88 2.88 0 1 0 5.76 0 a2.88 2.88 0 1 0 -5.76 0zM238.62 862.5 a2.88 2.88 0 1 0 5.76 0 a2.88 2.88 0 1 0 -5.76 0z" fill="black"></path><path d="M744.62 701.5 a2.88 2.88 0 1 0 5.76 0 a2.88 2.88 0 1 0 -5.76 0zM698.62 862.5 a2.88 2.88 0 1 0 5.76 0 a2.88 2.88 0 1 0 -5.76 0z" fill="black"></path><path d="M215.62 747.5 a2.88 2.88 0 1 0 5.76 0 a2.88 2.88 0 1 0 -5.76 0zM169.62 678.5 a2.88 2.88 0 1 0 5.76 0 a2.88 2.88 0 1 0 -5.76 0z" fill="black"></path><path d="M1089.62 586.5 a2.88 2.88 0 1 0 5.76 0 a2.88 2.88 0 1 0 -5.76 0zM1135.62 586.5 a2.88 2.88 0 1 0 5.76 0 a2.88 2.88 0 1 0 -5.76 0z" fill="black"></path><path d="M100.62 57.5 a2.88 2.88 0 1 0 5.76 0 a2.88 2.88 0 1 0 -5.76 0zM123.62 103.5 a2.88 2.88 0 1 0 5.76 0 a2.88 2.88 0 1 0 -5.76 0z" fill="black"></path><path d="M468.62 195.5 a2.88 2.88 0 1 0 5.76 0 a2.88 2.88 0 1 0 -5.76 0zM606.62 241.5 a2.88 2.88 0 1 0 5.76 0 a2.88 2.88 0 1 0 -5.76 0z" fill="black"></path><path d="M951.62 839.5 a2.88 2.88 0 1 0 5.76 0 a2.88 2.88 0 1 0 -5.76 0zM882.62 816.5 a2.88 2.88 0 1 0 5.76 0 a2.88 2.88 0 1 0 -5.76 0z" fill="black"></path><path d="M1020.62 885.5 a2.88 2.88 0 1 0 5.76 0 a2.88 2.88 0 1 0 -5.76 0zM974.62 885.5 a2.88 2.88 0 1 0 5.76 0 a2.88 2.88 0 1 0 -5.76 0z" fill="black"></path><path d="M8.62 149.5 a2.88 2.88 0 1 0 5.76 0 a2.88 2.88 0 1 0 -5.76 0zM100.62 149.5 a2.88 2.88 0 1 0 5.76 0 a2.88 2.88 0 1 0 -5.76 0z" fill="black"></path><path d="M629.62 563.5 a2.88 2.88 0 1 0 5.76 0 a2.88 2.88 0 1 0 -5.76 0zM629.62 448.5 a2.88 2.88 0 1 0 5.76 0 a2.88 2.88 0 1 0 -5.76 0z" fill="black"></path><path d="M8.62 724.5 a2.88 2.88 0 1 0 5.76 0 a2.88 2.88 0 1 0 -5.76 0zM8.62 655.5 a2.88 2.88 0 1 0 5.76 0 a2.88 2.88 0 1 0 -5.76 0z" fill="black"></path><path d="M192.62 517.5 a2.88 2.88 0 1 0 5.76 0 a2.88 2.88 0 1 0 -5.76 0zM307.62 632.5 a2.88 2.88 0 1 0 5.76 0 a2.88 2.88 0 1 0 -5.76 0z" fill="black"></path><path d="M629.62 632.5 a2.88 2.88 0 1 0 5.76 0 a2.88 2.88 0 1 0 -5.76 0zM767.62 540.5 a2.88 2.88 0 1 0 5.76 0 a2.88 2.88 0 1 0 -5.76 0z" fill="black"></path><path d="M721.62 1000.5 a2.88 2.88 0 1 0 5.76 0 a2.88 2.88 0 1 0 -5.76 0zM813.62 977.5 a2.88 2.88 0 1 0 5.76 0 a2.88 2.88 0 1 0 -5.76 0z" fill="black"></path><path d="M675.62 57.5 a2.88 2.88 0 1 0 5.76 0 a2.88 2.88 0 1 0 -5.76 0zM767.62 80.5 a2.88 2.88 0 1 0 5.76 0 a2.88 2.88 0 1 0 -5.76 0z" fill="black"></path><path d="M8.62 1000.5 a2.88 2.88 0 1 0 5.76 0 a2.88 2.88 0 1 0 -5.76 0zM8.62 954.5 a2.88 2.88 0 1 0 5.76 0 a2.88 2.88 0 1 0 -5.76 0z" fill="black"></path><path d="M445.62 885.5 a2.88 2.88 0 1 0 5.76 0 a2.88 2.88 0 1 0 -5.76 0zM399.62 885.5 a2.88 2.88 0 1 0 5.76 0 a2.88 2.88 0 1 0 -5.76 0z" fill="black"></path><path d="M169.62 287.5 a2.88 2.88 0 1 0 5.76 0 a2.88 2.88 0 1 0 -5.76 0zM215.62 264.5 a2.88 2.88 0 1 0 5.76 0 a2.88 2.88 0 1 0 -5.76 0z" fill="black"></path><path d="M928.62 448.5 a2.88 2.88 0 1 0 5.76 0 a2.88 2.88 0 1 0 -5.76 0zM974.62 448.5 a2.88 2.88 0 1 0 5.76 0 a2.88 2.88 0 1 0 -5.76 0z" fill="black"></path><path d="M974.62 747.5 a2.88 2.88 0 1 0 5.76 0 a2.88 2.88 0 1 0 -5.76 0zM1043.62 747.5 a2.88 2.88 0 1 0 5.76 0 a2.88 2.88 0 1 0 -5.76 0z" fill="black"></path><path d="M560.62 655.5 a2.88 2.88 0 1 0 5.76 0 a2.88 2.88 0 1 0 -5.76 0zM560.62 563.5 a2.88 2.88 0 1 0 5.76 0 a2.88 2.88 0 1 0 -5.76 0z" fill="black"></path><path d="M215.62 172.5 a2.88 2.88 0 1 0 5.76 0 a2.88 2.88 0 1 0 -5.76 0zM261.62 126.5 a2.88 2.88 0 1 0 5.76 0 a2.88 2.88 0 1 0 -5.76 0z" fill="black"></path><path d="M8.62 908.5 a2.88 2.88 0 1 0 5.76 0 a2.88 2.88 0 1 0 -5.76 0zM54.62 908.5 a2.88 2.88 0 1 0 5.76 0 a2.88 2.88 0 1 0 -5.76 0z" fill="black"></path><path d="M468.62 494.5 a2.88 2.88 0 1 0 5.76 0 a2.88 2.88 0 1 0 -5.76 0zM330.62 356.5 a2.88 2.88 0 1 0 5.76 0 a2.88 2.88 0 1 0 -5.76 0z" fill="black"></path><path d="M169.62 540.5 a2.88 2.88 0 1 0 5.76 0 a2.88 2.88 0 1 0 -5.76 0zM238.62 609.5 a2.88 2.88 0 1 0 5.76 0 a2.88 2.88 0 1 0 -5.76 0z" fill="black"></path><path d="M123.62 885.5 a2.88 2.88 0 1 0 5.76 0 a2.88 2.88 0 1 0 -5.76 0zM77.62 862.5 a2.88 2.88 0 1 0 5.76 0 a2.88 2.88 0 1 0 -5.76 0z" fill="black"></path><path d="M307.62 195.5 a2.88 2.88 0 1 0 5.76 0 a2.88 2.88 0 1 0 -5.76 0zM330.62 126.5 a2.88 2.88 0 1 0 5.76 0 a2.88 2.88 0 1 0 -5.76 0z" fill="black"></path><path d="M261.62 517.5 a2.88 2.88 0 1 0 5.76 0 a2.88 2.88 0 1 0 -5.76 0zM307.62 609.5 a2.88 2.88 0 1 0 5.76 0 a2.88 2.88 0 1 0 -5.76 0z" fill="black"></path><path d="M974.62 954.5 a2.88 2.88 0 1 0 5.76 0 a2.88 2.88 0 1 0 -5.76 0zM859.62 1000.5 a2.88 2.88 0 1 0 5.76 0 a2.88 2.88 0 1 0 -5.76 0z" fill="black"></path><path d="M606.62 218.5 a2.88 2.88 0 1 0 5.76 0 a2.88 2.88 0 1 0 -5.76 0zM537.62 34.5 a2.88 2.88 0 1 0 5.76 0 a2.88 2.88 0 1 0 -5.76 0z" fill="black"></path><path d="M491.62 57.5 a2.88 2.88 0 1 0 5.76 0 a2.88 2.88 0 1 0 -5.76 0zM491.62 126.5 a2.88 2.88 0 1 0 5.76 0 a2.88 2.88 0 1 0 -5.76 0z" fill="black"></path><path d="M1089.62 287.5 a2.88 2.88 0 1 0 5.76 0 a2.88 2.88 0 1 0 -5.76 0zM905.62 402.5 a2.88 2.88 0 1 0 5.76 0 a2.88 2.88 0 1 0 -5.76 0z" fill="black"></path><path d="M192.62 402.5 a2.88 2.88 0 1 0 5.76 0 a2.88 2.88 0 1 0 -5.76 0zM238.62 402.5 a2.88 2.88 0 1 0 5.76 0 a2.88 2.88 0 1 0 -5.76 0z" fill="black"></path><path d="M31.62 471.5 a2.88 2.88 0 1 0 5.76 0 a2.88 2.88 0 1 0 -5.76 0zM8.62 540.5 a2.88 2.88 0 1 0 5.76 0 a2.88 2.88 0 1 0 -5.76 0z" fill="black"></path><path d="M100.62 126.5 a2.88 2.88 0 1 0 5.76 0 a2.88 2.88 0 1 0 -5.76 0zM31.62 57.5 a2.88 2.88 0 1 0 5.76 0 a2.88 2.88 0 1 0 -5.76 0z" fill="black"></path><path d="M974.62 770.5 a2.88 2.88 0 1 0 5.76 0 a2.88 2.88 0 1 0 -5.76 0zM836.62 770.5 a2.88 2.88 0 1 0 5.76 0 a2.88 2.88 0 1 0 -5.76 0z" fill="black"></path><path d="M1089.62 563.5 a2.88 2.88 0 1 0 5.76 0 a2.88 2.88 0 1 0 -5.76 0zM1135.62 609.5 a2.88 2.88 0 1 0 5.76 0 a2.88 2.88 0 1 0 -5.76 0z" fill="black"></path><path d="M721.62 563.5 a2.88 2.88 0 1 0 5.76 0 a2.88 2.88 0 1 0 -5.76 0zM721.62 609.5 a2.88 2.88 0 1 0 5.76 0 a2.88 2.88 0 1 0 -5.76 0z" fill="black"></path><path d="M905.62 977.5 a2.88 2.88 0 1 0 5.76 0 a2.88 2.88 0 1 0 -5.76 0zM951.62 954.5 a2.88 2.88 0 1 0 5.76 0 a2.88 2.88 0 1 0 -5.76 0z" fill="black"></path><path d="M836.62 494.5 a2.88 2.88 0 1 0 5.76 0 a2.88 2.88 0 1 0 -5.76 0zM790.62 494.5 a2.88 2.88 0 1 0 5.76 0 a2.88 2.88 0 1 0 -5.76 0z" fill="black"></path><path d="M54.62 655.5 a2.88 2.88 0 1 0 5.76 0 a2.88 2.88 0 1 0 -5.76 0zM31.62 609.5 a2.88 2.88 0 1 0 5.76 0 a2.88 2.88 0 1 0 -5.76 0z" fill="black"></path><path d="M330.62 195.5 a2.88 2.88 0 1 0 5.76 0 a2.88 2.88 0 1 0 -5.76 0zM330.62 149.5 a2.88 2.88 0 1 0 5.76 0 a2.88 2.88 0 1 0 -5.76 0z" fill="black"></path><path d="M307.62 862.5 a2.88 2.88 0 1 0 5.76 0 a2.88 2.88 0 1 0 -5.76 0zM284.62 931.5 a2.88 2.88 0 1 0 5.76 0 a2.88 2.88 0 1 0 -5.76 0z" fill="black"></path><path d="M54.62 724.5 a2.88 2.88 0 1 0 5.76 0 a2.88 2.88 0 1 0 -5.76 0zM100.62 609.5 a2.88 2.88 0 1 0 5.76 0 a2.88 2.88 0 1 0 -5.76 0z" fill="black"></path><path d="M560.62 264.5 a2.88 2.88 0 1 0 5.76 0 a2.88 2.88 0 1 0 -5.76 0zM606.62 264.5 a2.88 2.88 0 1 0 5.76 0 a2.88 2.88 0 1 0 -5.76 0z" fill="black"></path><path d="M882.62 103.5 a2.88 2.88 0 1 0 5.76 0 a2.88 2.88 0 1 0 -5.76 0zM951.62 172.5 a2.88 2.88 0 1 0 5.76 0 a2.88 2.88 0 1 0 -5.76 0z" fill="black"></path><path d="M491.62 839.5 a2.88 2.88 0 1 0 5.76 0 a2.88 2.88 0 1 0 -5.76 0zM491.62 908.5 a2.88 2.88 0 1 0 5.76 0 a2.88 2.88 0 1 0 -5.76 0z" fill="black"></path><path d="M997.62 724.5 a2.88 2.88 0 1 0 5.76 0 a2.88 2.88 0 1 0 -5.76 0zM1043.62 724.5 a2.88 2.88 0 1 0 5.76 0 a2.88 2.88 0 1 0 -5.76 0z" fill="black"></path><path d="M491.62 195.5 a2.88 2.88 0 1 0 5.76 0 a2.88 2.88 0 1 0 -5.76 0zM445.62 172.5 a2.88 2.88 0 1 0 5.76 0 a2.88 2.88 0 1 0 -5.76 0z" fill="black"></path><path d="M491.62 563.5 a2.88 2.88 0 1 0 5.76 0 a2.88 2.88 0 1 0 -5.76 0zM445.62 563.5 a2.88 2.88 0 1 0 5.76 0 a2.88 2.88 0 1 0 -5.76 0z" fill="black"></path><path d="M813.62 632.5 a2.88 2.88 0 1 0 5.76 0 a2.88 2.88 0 1 0 -5.76 0zM813.62 678.5 a2.88 2.88 0 1 0 5.76 0 a2.88 2.88 0 1 0 -5.76 0z" fill="black"></path><path d="M1089.62 609.5 a2.88 2.88 0 1 0 5.76 0 a2.88 2.88 0 1 0 -5.76 0zM1043.62 655.5 a2.88 2.88 0 1 0 5.76 0 a2.88 2.88 0 1 0 -5.76 0z" fill="black"></path><path d="M1135.62 839.5 a2.88 2.88 0 1 0 5.76 0 a2.88 2.88 0 1 0 -5.76 0zM1089.62 770.5 a2.88 2.88 0 1 0 5.76 0 a2.88 2.88 0 1 0 -5.76 0z" fill="black"></path><path d="M238.62 977.5 a2.88 2.88 0 1 0 5.76 0 a2.88 2.88 0 1 0 -5.76 0zM54.62 1000.5 a2.88 2.88 0 1 0 5.76 0 a2.88 2.88 0 1 0 -5.76 0z" fill="black"></path><path d="M1043.62 356.5 a2.88 2.88 0 1 0 5.76 0 a2.88 2.88 0 1 0 -5.76 0zM882.62 333.5 a2.88 2.88 0 1 0 5.76 0 a2.88 2.88 0 1 0 -5.76 0z" fill="black"></path><path d="M77.62 264.5 a2.88 2.88 0 1 0 5.76 0 a2.88 2.88 0 1 0 -5.76 0zM31.62 264.5 a2.88 2.88 0 1 0 5.76 0 a2.88 2.88 0 1 0 -5.76 0z" fill="black"></path><path d="M514.62 126.5 a2.88 2.88 0 1 0 5.76 0 a2.88 2.88 0 1 0 -5.76 0zM606.62 80.5 a2.88 2.88 0 1 0 5.76 0 a2.88 2.88 0 1 0 -5.76 0z" fill="black"></path><path d="M422.62 977.5 a2.88 2.88 0 1 0 5.76 0 a2.88 2.88 0 1 0 -5.76 0zM491.62 954.5 a2.88 2.88 0 1 0 5.76 0 a2.88 2.88 0 1 0 -5.76 0z" fill="black"></path><path d="M491.62 540.5 a2.88 2.88 0 1 0 5.76 0 a2.88 2.88 0 1 0 -5.76 0zM445.62 471.5 a2.88 2.88 0 1 0 5.76 0 a2.88 2.88 0 1 0 -5.76 0z" fill="black"></path><path d="M974.62 149.5 a2.88 2.88 0 1 0 5.76 0 a2.88 2.88 0 1 0 -5.76 0zM928.62 126.5 a2.88 2.88 0 1 0 5.76 0 a2.88 2.88 0 1 0 -5.76 0z" fill="black"></path><path d="M652.62 839.5 a2.88 2.88 0 1 0 5.76 0 a2.88 2.88 0 1 0 -5.76 0zM652.62 747.5 a2.88 2.88 0 1 0 5.76 0 a2.88 2.88 0 1 0 -5.76 0z" fill="black"></path><path d="M790.62 701.5 a2.88 2.88 0 1 0 5.76 0 a2.88 2.88 0 1 0 -5.76 0zM744.62 678.5 a2.88 2.88 0 1 0 5.76 0 a2.88 2.88 0 1 0 -5.76 0z" fill="black"></path><path d="M606.62 333.5 a2.88 2.88 0 1 0 5.76 0 a2.88 2.88 0 1 0 -5.76 0zM744.62 333.5 a2.88 2.88 0 1 0 5.76 0 a2.88 2.88 0 1 0 -5.76 0z" fill="black"></path><path d="M100.62 425.5 a2.88 2.88 0 1 0 5.76 0 a2.88 2.88 0 1 0 -5.76 0zM146.62 425.5 a2.88 2.88 0 1 0 5.76 0 a2.88 2.88 0 1 0 -5.76 0z" fill="black"></path><path d="M146.62 34.5 a2.88 2.88 0 1 0 5.76 0 a2.88 2.88 0 1 0 -5.76 0zM77.62 57.5 a2.88 2.88 0 1 0 5.76 0 a2.88 2.88 0 1 0 -5.76 0z" fill="black"></path><path d="M606.62 862.5 a2.88 2.88 0 1 0 5.76 0 a2.88 2.88 0 1 0 -5.76 0zM629.62 931.5 a2.88 2.88 0 1 0 5.76 0 a2.88 2.88 0 1 0 -5.76 0z" fill="black"></path><path d="M882.62 80.5 a2.88 2.88 0 1 0 5.76 0 a2.88 2.88 0 1 0 -5.76 0zM974.62 80.5 a2.88 2.88 0 1 0 5.76 0 a2.88 2.88 0 1 0 -5.76 0z" fill="black"></path><path d="M215.62 517.5 a2.88 2.88 0 1 0 5.76 0 a2.88 2.88 0 1 0 -5.76 0zM284.62 586.5 a2.88 2.88 0 1 0 5.76 0 a2.88 2.88 0 1 0 -5.76 0z" fill="black"></path><path d="M31.62 80.5 a2.88 2.88 0 1 0 5.76 0 a2.88 2.88 0 1 0 -5.76 0zM77.62 126.5 a2.88 2.88 0 1 0 5.76 0 a2.88 2.88 0 1 0 -5.76 0z" fill="black"></path><path d="M928.62 816.5 a2.88 2.88 0 1 0 5.76 0 a2.88 2.88 0 1 0 -5.76 0zM928.62 862.5 a2.88 2.88 0 1 0 5.76 0 a2.88 2.88 0 1 0 -5.76 0z" fill="black"></path><path d="M1043.62 149.5 a2.88 2.88 0 1 0 5.76 0 a2.88 2.88 0 1 0 -5.76 0zM1089.62 103.5 a2.88 2.88 0 1 0 5.76 0 a2.88 2.88 0 1 0 -5.76 0z" fill="black"></path><path d="M77.62 379.5 a2.88 2.88 0 1 0 5.76 0 a2.88 2.88 0 1 0 -5.76 0zM100.62 310.5 a2.88 2.88 0 1 0 5.76 0 a2.88 2.88 0 1 0 -5.76 0z" fill="black"></path><path d="M721.62 57.5 a2.88 2.88 0 1 0 5.76 0 a2.88 2.88 0 1 0 -5.76 0zM767.62 57.5 a2.88 2.88 0 1 0 5.76 0 a2.88 2.88 0 1 0 -5.76 0z" fill="black"></path><path d="M1135.62 563.5 a2.88 2.88 0 1 0 5.76 0 a2.88 2.88 0 1 0 -5.76 0zM1135.62 494.5 a2.88 2.88 0 1 0 5.76 0 a2.88 2.88 0 1 0 -5.76 0z" fill="black"></path><path d="M859.62 103.5 a2.88 2.88 0 1 0 5.76 0 a2.88 2.88 0 1 0 -5.76 0zM905.62 149.5 a2.88 2.88 0 1 0 5.76 0 a2.88 2.88 0 1 0 -5.76 0z" fill="black"></path><path d="M284.62 471.5 a2.88 2.88 0 1 0 5.76 0 a2.88 2.88 0 1 0 -5.76 0zM353.62 471.5 a2.88 2.88 0 1 0 5.76 0 a2.88 2.88 0 1 0 -5.76 0z" fill="black"></path><path d="M1043.62 839.5 a2.88 2.88 0 1 0 5.76 0 a2.88 2.88 0 1 0 -5.76 0zM997.62 862.5 a2.88 2.88 0 1 0 5.76 0 a2.88 2.88 0 1 0 -5.76 0z" fill="black"></path><path d="M54.62 425.5 a2.88 2.88 0 1 0 5.76 0 a2.88 2.88 0 1 0 -5.76 0zM54.62 379.5 a2.88 2.88 0 1 0 5.76 0 a2.88 2.88 0 1 0 -5.76 0z" fill="black"></path><path d="M928.62 34.5 a2.88 2.88 0 1 0 5.76 0 a2.88 2.88 0 1 0 -5.76 0zM974.62 34.5 a2.88 2.88 0 1 0 5.76 0 a2.88 2.88 0 1 0 -5.76 0z" fill="black"></path><path d="M146.62 333.5 a2.88 2.88 0 1 0 5.76 0 a2.88 2.88 0 1 0 -5.76 0zM146.62 264.5 a2.88 2.88 0 1 0 5.76 0 a2.88 2.88 0 1 0 -5.76 0z" fill="black"></path><path d="M1135.62 678.5 a2.88 2.88 0 1 0 5.76 0 a2.88 2.88 0 1 0 -5.76 0zM1135.62 632.5 a2.88 2.88 0 1 0 5.76 0 a2.88 2.88 0 1 0 -5.76 0z" fill="black"></path><path d="M744.62 931.5 a2.88 2.88 0 1 0 5.76 0 a2.88 2.88 0 1 0 -5.76 0zM790.62 931.5 a2.88 2.88 0 1 0 5.76 0 a2.88 2.88 0 1 0 -5.76 0z" fill="black"></path><path d="M192.62 954.5 a2.88 2.88 0 1 0 5.76 0 a2.88 2.88 0 1 0 -5.76 0zM146.62 954.5 a2.88 2.88 0 1 0 5.76 0 a2.88 2.88 0 1 0 -5.76 0z" fill="black"></path><path d="M514.62 655.5 a2.88 2.88 0 1 0 5.76 0 a2.88 2.88 0 1 0 -5.76 0zM537.62 724.5 a2.88 2.88 0 1 0 5.76 0 a2.88 2.88 0 1 0 -5.76 0z" fill="black"></path><path d="M1112.62 241.5 a2.88 2.88 0 1 0 5.76 0 a2.88 2.88 0 1 0 -5.76 0zM1135.62 287.5 a2.88 2.88 0 1 0 5.76 0 a2.88 2.88 0 1 0 -5.76 0z" fill="black"></path><path d="M882.62 149.5 a2.88 2.88 0 1 0 5.76 0 a2.88 2.88 0 1 0 -5.76 0zM859.62 80.5 a2.88 2.88 0 1 0 5.76 0 a2.88 2.88 0 1 0 -5.76 0z" fill="black"></path><path d="M468.62 862.5 a2.88 2.88 0 1 0 5.76 0 a2.88 2.88 0 1 0 -5.76 0zM468.62 908.5 a2.88 2.88 0 1 0 5.76 0 a2.88 2.88 0 1 0 -5.76 0z" fill="black"></path><path d="M77.62 172.5 a2.88 2.88 0 1 0 5.76 0 a2.88 2.88 0 1 0 -5.76 0zM8.62 172.5 a2.88 2.88 0 1 0 5.76 0 a2.88 2.88 0 1 0 -5.76 0z" fill="black"></path><path d="M1135.62 701.5 a2.88 2.88 0 1 0 5.76 0 a2.88 2.88 0 1 0 -5.76 0zM1089.62 701.5 a2.88 2.88 0 1 0 5.76 0 a2.88 2.88 0 1 0 -5.76 0z" fill="black"></path><path d="M100.62 977.5 a2.88 2.88 0 1 0 5.76 0 a2.88 2.88 0 1 0 -5.76 0zM54.62 977.5 a2.88 2.88 0 1 0 5.76 0 a2.88 2.88 0 1 0 -5.76 0z" fill="black"></path><path d="M353.62 448.5 a2.88 2.88 0 1 0 5.76 0 a2.88 2.88 0 1 0 -5.76 0zM307.62 425.5 a2.88 2.88 0 1 0 5.76 0 a2.88 2.88 0 1 0 -5.76 0z" fill="black"></path><path d="M399.62 931.5 a2.88 2.88 0 1 0 5.76 0 a2.88 2.88 0 1 0 -5.76 0zM445.62 954.5 a2.88 2.88 0 1 0 5.76 0 a2.88 2.88 0 1 0 -5.76 0z" fill="black"></path><path d="M123.62 1000.5 a2.88 2.88 0 1 0 5.76 0 a2.88 2.88 0 1 0 -5.76 0zM238.62 1000.5 a2.88 2.88 0 1 0 5.76 0 a2.88 2.88 0 1 0 -5.76 0z" fill="black"></path><path d="M399.62 195.5 a2.88 2.88 0 1 0 5.76 0 a2.88 2.88 0 1 0 -5.76 0zM353.62 195.5 a2.88 2.88 0 1 0 5.76 0 a2.88 2.88 0 1 0 -5.76 0z" fill="black"></path><path d="M790.62 1000.5 a2.88 2.88 0 1 0 5.76 0 a2.88 2.88 0 1 0 -5.76 0zM744.62 1000.5 a2.88 2.88 0 1 0 5.76 0 a2.88 2.88 0 1 0 -5.76 0z" fill="black"></path><path d="M836.62 609.5 a2.88 2.88 0 1 0 5.76 0 a2.88 2.88 0 1 0 -5.76 0zM836.62 655.5 a2.88 2.88 0 1 0 5.76 0 a2.88 2.88 0 1 0 -5.76 0z" fill="black"></path><path d="M491.62 655.5 a2.88 2.88 0 1 0 5.76 0 a2.88 2.88 0 1 0 -5.76 0zM537.62 701.5 a2.88 2.88 0 1 0 5.76 0 a2.88 2.88 0 1 0 -5.76 0z" fill="black"></path><path d="M721.62 402.5 a2.88 2.88 0 1 0 5.76 0 a2.88 2.88 0 1 0 -5.76 0zM675.62 402.5 a2.88 2.88 0 1 0 5.76 0 a2.88 2.88 0 1 0 -5.76 0z" fill="black"></path><path d="M859.62 149.5 a2.88 2.88 0 1 0 5.76 0 a2.88 2.88 0 1 0 -5.76 0zM836.62 103.5 a2.88 2.88 0 1 0 5.76 0 a2.88 2.88 0 1 0 -5.76 0z" fill="black"></path><path d="M951.62 816.5 a2.88 2.88 0 1 0 5.76 0 a2.88 2.88 0 1 0 -5.76 0zM997.62 816.5 a2.88 2.88 0 1 0 5.76 0 a2.88 2.88 0 1 0 -5.76 0z" fill="black"></path></mask></defs></svg>